<svg width="108" height="25" viewBox="0 0 108 25" fill="none" xmlns="http://www.w3.org/2000/svg">
<g clip-path="url(#clip0_176_39410)">
<path d="M17.1463 0.0882568V7.57776H24.6428V0.0882568H17.1463Z" fill="black"/>
<path d="M8.91711 16.5986V24.0881H24.6446V16.5986H8.91711Z" fill="black"/>
<path d="M0.644348 16.5986V24.0881H8.11922V16.5986H0.644348Z" fill="black"/>
<path d="M16.3713 7.81688V0.435303L0.967896 15.8243H8.37796L16.3713 7.81688Z" fill="black"/>
<path d="M24.3019 8.35449H16.9566L9.46008 15.8224H16.3949L24.3019 8.35449Z" fill="black"/>
<path d="M49.1077 11.4442V12.9245C49.1077 15.6658 48.2305 17.8863 46.476 19.5859C44.7216 21.2855 42.4554 22.1353 39.6775 22.1353C36.7169 22.1353 34.2589 21.1759 32.3034 19.2569C30.3662 17.3197 29.3976 14.9622 29.3976 12.1843C29.3976 9.38818 30.357 7.02148 32.276 5.08427C34.2132 3.14707 36.6073 2.17847 39.4582 2.17847C41.2492 2.17847 42.8849 2.58967 44.3652 3.41207C45.8455 4.21619 46.9969 5.29444 47.8193 6.64688L44.5845 8.51098C44.1276 7.72508 43.4332 7.08548 42.5011 6.59198C41.5873 6.09858 40.5639 5.85185 39.4308 5.85185C37.6033 5.85185 36.0955 6.45498 34.9076 7.66108C33.738 8.84898 33.1532 10.3568 33.1532 12.1843C33.1532 13.9936 33.7471 15.4922 34.9351 16.6801C36.1412 17.8497 37.7312 18.4345 39.705 18.4345C41.167 18.4345 42.3732 18.1147 43.3235 17.4751C44.2921 16.8172 44.95 15.9217 45.2973 14.7886H39.4856V11.4442H49.1077Z" fill="black"/>
<path d="M60.6797 8.04493H64.216V21.7515H60.6797V20.1342C59.6197 21.4683 58.1302 22.1353 56.2113 22.1353C54.3838 22.1353 52.8121 21.4409 51.4962 20.0519C50.1987 18.6447 49.5499 16.9268 49.5499 14.8982C49.5499 12.8697 50.1987 11.1609 51.4962 9.77203C52.8121 8.36473 54.3838 7.66113 56.2113 7.66113C58.1302 7.66113 59.6197 8.32823 60.6797 9.66233V8.04493ZM54.1553 17.6944C54.8681 18.4071 55.7727 18.7635 56.8692 18.7635C57.9658 18.7635 58.8704 18.4071 59.5831 17.6944C60.3142 16.9634 60.6797 16.0313 60.6797 14.8982C60.6797 13.7652 60.3142 12.8422 59.5831 12.1295C58.8704 11.3985 57.9658 11.033 56.8692 11.033C55.7727 11.033 54.8681 11.3985 54.1553 12.1295C53.4426 12.8422 53.0862 13.7652 53.0862 14.8982C53.0862 16.0313 53.4426 16.9634 54.1553 17.6944Z" fill="black"/>
<path d="M81.2121 7.66113C82.7838 7.66113 84.0357 8.17293 84.9678 9.19633C85.9181 10.2197 86.3932 11.5904 86.3932 13.3083V21.7515H82.8569V13.555C82.8569 12.7326 82.6559 12.0929 82.2538 11.6361C81.8518 11.1792 81.2852 10.9507 80.5542 10.9507C79.7501 10.9507 79.1196 11.2157 78.6627 11.7457C78.2241 12.2757 78.0048 13.0433 78.0048 14.0484V21.7515H74.4685V13.555C74.4685 12.7326 74.2675 12.0929 73.8654 11.6361C73.4633 11.1792 72.8968 10.9507 72.1658 10.9507C71.3799 10.9507 70.7494 11.2157 70.2743 11.7457C69.8174 12.2757 69.5889 13.0433 69.5889 14.0484V21.7515H66.0526V8.04493H69.5889V9.49783C70.4113 8.27343 71.6815 7.66113 73.3994 7.66113C75.0807 7.66113 76.3234 8.31913 77.1276 9.63493C78.0413 8.31913 79.4029 7.66113 81.2121 7.66113Z" fill="black"/>
<path d="M89.7801 6.40006C89.1953 6.40006 88.6836 6.18996 88.2449 5.76959C87.8246 5.33097 87.6144 4.81926 87.6144 4.23444C87.6144 3.64963 87.8246 3.13792 88.2449 2.6993C88.6836 2.26069 89.1953 2.04138 89.7801 2.04138C90.3832 2.04138 90.8949 2.26069 91.3152 2.6993C91.7538 3.13792 91.9731 3.64963 91.9731 4.23444C91.9731 4.81926 91.7538 5.33097 91.3152 5.76959C90.8949 6.18996 90.3832 6.40006 89.7801 6.40006ZM88.0256 21.7515V8.04486H91.5619V21.7515H88.0256Z" fill="black"/>
<path d="M99.9522 22.1353C97.8873 22.1353 96.1603 21.4409 94.7713 20.0519C93.4007 18.663 92.7153 16.9451 92.7153 14.8982C92.7153 12.8514 93.4007 11.1335 94.7713 9.74453C96.1603 8.35563 97.8873 7.66113 99.9522 7.66113C101.286 7.66113 102.502 7.98103 103.598 8.62063C104.695 9.26023 105.526 10.1192 106.093 11.1974L103.05 12.9793C102.776 12.4128 102.355 11.965 101.789 11.6361C101.241 11.3071 100.619 11.1426 99.9252 11.1426C98.8652 11.1426 97.9878 11.499 97.2933 12.2117C96.5989 12.9062 96.2516 13.8017 96.2516 14.8982C96.2516 15.9765 96.5989 16.872 97.2933 17.5847C97.9878 18.2792 98.8652 18.6264 99.9252 18.6264C100.638 18.6264 101.268 18.4711 101.816 18.1604C102.383 17.8315 102.803 17.3837 103.077 16.8172L106.148 18.5716C105.545 19.6499 104.695 20.5179 103.598 21.1759C102.502 21.8155 101.286 22.1353 99.9522 22.1353Z" fill="black"/>
</g>
<defs>
<clipPath id="clip0_176_39410">
<rect width="106.667" height="24" fill="white" transform="translate(0.636353 0.0882568)"/>
</clipPath>
</defs>
</svg>
