<svg width="120" height="40" viewBox="0 0 120 40" fill="none" xmlns="http://www.w3.org/2000/svg">
<rect x="0.5" y="0.5" width="119" height="39" rx="7.5" fill="black"/>
<rect x="0.5" y="0.5" width="119" height="39" rx="7.5" stroke="#A6A6A6"/>
<path d="M24.8384 20.3006C24.8492 19.466 25.0715 18.6476 25.4847 17.9216C25.8978 17.1957 26.4885 16.5857 27.2015 16.1486C26.7485 15.5034 26.1509 14.9725 25.4561 14.5979C24.7614 14.2234 23.9886 14.0155 23.1992 13.9909C21.5152 13.8146 19.8827 14.9957 19.0246 14.9957C18.1499 14.9957 16.8287 14.0084 15.406 14.0376C14.4857 14.0672 13.5889 14.3341 12.8028 14.8121C12.0167 15.2902 11.3682 15.9632 10.9205 16.7654C8.98105 20.1139 10.4277 25.0349 12.2855 27.7415C13.215 29.0669 14.3013 30.5473 15.7228 30.4948C17.1137 30.4373 17.6332 29.6103 19.3122 29.6103C20.9756 29.6103 21.463 30.4948 22.9133 30.4614C24.4058 30.4373 25.3462 29.1302 26.2431 27.7923C26.911 26.8479 27.4249 25.8042 27.7658 24.6998C26.8987 24.3341 26.1587 23.7219 25.6381 22.9396C25.1175 22.1573 24.8394 21.2395 24.8384 20.3006Z" fill="white"/>
<path d="M22.0991 12.2108C22.9129 11.2366 23.3138 9.98445 23.2167 8.72021C21.9734 8.85044 20.8249 9.44299 20.0001 10.3798C19.5969 10.8375 19.288 11.3699 19.0912 11.9467C18.8944 12.5235 18.8135 13.1333 18.8532 13.7412C19.4751 13.7476 20.0903 13.6132 20.6526 13.3481C21.2148 13.083 21.7094 12.6942 22.0991 12.2108Z" fill="white"/>
<path d="M42.421 23.2686H37.6743L36.5344 26.6251H34.5239L39.0199 14.2071H41.1088L45.6047 26.6251H43.56L42.421 23.2686ZM38.166 21.7198H41.9285L40.0737 16.2725H40.0218L38.166 21.7198Z" fill="white"/>
<path d="M55.3145 22.0987C55.3145 24.9122 53.8045 26.7198 51.5256 26.7198C50.9484 26.7499 50.3742 26.6173 49.869 26.3372C49.3638 26.057 48.9479 25.6407 48.669 25.1358H48.6259V29.6202H46.7623V17.5713H48.5662V19.0772H48.6004C48.8922 18.5747 49.3151 18.1605 49.8242 17.8787C50.3332 17.5969 50.9094 17.4579 51.4913 17.4766C53.7956 17.4766 55.3145 19.293 55.3145 22.0987ZM53.399 22.0987C53.399 20.2657 52.4491 19.0606 50.9997 19.0606C49.5758 19.0606 48.6181 20.2911 48.6181 22.0987C48.6181 23.9229 49.5758 25.1446 50.9997 25.1446C52.4491 25.1446 53.399 23.9483 53.399 22.0987Z" fill="white"/>
<path d="M65.3074 22.0987C65.3074 24.9122 63.7973 26.7198 61.5184 26.7198C60.9412 26.7499 60.3671 26.6173 59.8619 26.3372C59.3566 26.057 58.9408 25.6407 58.6618 25.1358H58.6187V29.6202H56.7551V17.5713H58.5589V19.0772H58.5932C58.885 18.5747 59.3079 18.1605 59.817 17.8787C60.326 17.5969 60.9022 17.4579 61.4841 17.4766C63.7885 17.4766 65.3074 19.293 65.3074 22.0987ZM63.3918 22.0987C63.3918 20.2657 62.4419 19.0606 60.9925 19.0606C59.5686 19.0606 58.6109 20.2911 58.6109 22.0987C58.6109 23.9229 59.5686 25.1446 60.9925 25.1446C62.4419 25.1446 63.3918 23.9483 63.3918 22.0987Z" fill="white"/>
<path d="M71.9118 23.1651C72.0499 24.3965 73.2495 25.2051 74.8889 25.2051C76.4597 25.2051 77.5898 24.3965 77.5898 23.2861C77.5898 22.3223 76.9082 21.7451 75.2943 21.3496L73.6804 20.9619C71.3938 20.4111 70.3322 19.3447 70.3322 17.6143C70.3322 15.4717 72.2046 14 74.8634 14C77.4948 14 79.2987 15.4717 79.3594 17.6143H77.4781C77.3655 16.375 76.3382 15.627 74.837 15.627C73.3357 15.627 72.3084 16.3838 72.3084 17.4854C72.3084 18.3633 72.9645 18.8799 74.5696 19.2754L75.9416 19.6113C78.4966 20.2138 79.5582 21.2373 79.5582 23.0537C79.5582 25.3769 77.7024 26.832 74.7508 26.832C71.9891 26.832 70.1245 25.4111 70.0041 23.165L71.9118 23.1651Z" fill="white"/>
<path d="M83.5802 15.4288V17.5713H85.3067V19.043H83.5802V24.0342C83.5802 24.8096 83.9259 25.1709 84.6848 25.1709C84.8898 25.1674 85.0944 25.153 85.2979 25.1279V26.5908C84.9567 26.6544 84.6098 26.6832 84.2628 26.6768C82.4246 26.6768 81.7078 25.9883 81.7078 24.2324V19.043H80.3877V17.5713H81.7077V15.4288H83.5802Z" fill="white"/>
<path d="M86.3066 22.0987C86.3066 19.2501 87.9891 17.46 90.6126 17.46C93.245 17.46 94.9196 19.25 94.9196 22.0987C94.9196 24.9551 93.2538 26.7374 90.6126 26.7374C87.9724 26.7374 86.3066 24.9551 86.3066 22.0987ZM93.0207 22.0987C93.0207 20.1446 92.1227 18.9913 90.6126 18.9913C89.1025 18.9913 88.2055 20.1534 88.2055 22.0987C88.2055 24.0606 89.1025 25.2051 90.6126 25.2051C92.1227 25.2051 93.0207 24.0606 93.0207 22.0987Z" fill="white"/>
<path d="M96.4561 17.5713H98.2335V19.1123H98.2766C98.3969 18.6311 98.6796 18.2057 99.0773 17.9078C99.475 17.61 99.9635 17.4577 100.46 17.4766C100.675 17.4759 100.889 17.4991 101.099 17.5459V19.2842C100.828 19.2016 100.545 19.1637 100.262 19.1719C99.9909 19.161 99.721 19.2086 99.4705 19.3115C99.2199 19.4143 98.9947 19.5701 98.8102 19.768C98.6257 19.9659 98.4863 20.2012 98.4017 20.4579C98.317 20.7146 98.289 20.9865 98.3197 21.2549V26.625H96.4561L96.4561 17.5713Z" fill="white"/>
<path d="M109.691 23.9659C109.441 25.6094 107.836 26.7374 105.782 26.7374C103.141 26.7374 101.501 24.9727 101.501 22.1416C101.501 19.3018 103.15 17.46 105.704 17.46C108.216 17.46 109.795 19.1807 109.795 21.9258V22.5625H103.383V22.6749C103.353 23.0081 103.395 23.3437 103.505 23.6596C103.616 23.9754 103.793 24.2642 104.024 24.5067C104.255 24.7493 104.535 24.94 104.845 25.0663C105.156 25.1926 105.49 25.2516 105.825 25.2393C106.265 25.2804 106.707 25.1787 107.085 24.9493C107.463 24.7199 107.756 24.3749 107.922 23.9659L109.691 23.9659ZM103.392 21.2637H107.931C107.947 20.9641 107.902 20.6643 107.797 20.3831C107.692 20.1019 107.53 19.8454 107.321 19.6296C107.111 19.4138 106.86 19.2435 106.582 19.1293C106.303 19.0151 106.004 18.9594 105.704 18.9659C105.4 18.9641 105.099 19.0222 104.819 19.137C104.538 19.2517 104.282 19.4208 104.067 19.6344C103.852 19.848 103.682 20.102 103.566 20.3816C103.45 20.6613 103.391 20.9611 103.392 21.2637Z" fill="white"/>
</svg>
