<svg width="81" height="19" viewBox="0 0 81 19" fill="none" xmlns="http://www.w3.org/2000/svg">
<g clip-path="url(#clip0_176_39421)">
<path d="M0.302612 8.80906C0.517875 8.59511 0.757523 8.51871 0.942271 8.36094C1.17695 8.16053 1.38537 7.91091 1.57276 7.65279C1.99664 7.06889 2.39825 7.02255 2.84199 7.62964C3.05366 7.91924 3.29833 8.18374 3.5524 8.42751C4.03727 8.89273 3.98976 9.29313 3.54152 9.77346C3.0867 10.2609 2.69651 10.8246 2.22983 11.4159C1.54097 10.712 0.973221 10.1318 0.354041 9.63668C0.302612 9.45132 0.302612 9.1809 0.302612 8.80906Z" fill="#F0B80B"/>
<path d="M25.776 14.1482C23.9055 14.2216 22.1064 14.2216 20.2206 14.2216C20.2206 10.9422 20.2206 7.63155 20.2206 4.15478C21.8843 4.15478 23.6154 3.97818 25.2933 4.23756C26.0126 4.34874 26.8487 5.22872 27.2218 6.00783C27.6805 6.96539 27.3274 8.04938 26.4135 8.84346C27.523 9.72609 28.1678 10.8728 27.7332 12.3773C27.4583 13.3289 26.7939 13.9555 25.776 14.1482ZM25.5322 11.6372C26.0339 10.644 25.3321 10.3553 24.7593 10.2653C23.9289 10.1347 23.0703 10.2318 22.2313 10.2318C22.2313 10.9789 22.2313 11.5832 22.2313 12.4796C23.3616 12.228 24.38 12.0012 25.5322 11.6372ZM25.0894 7.0803C24.3826 5.50774 23.1901 6.42559 22.2148 6.16744C22.2148 6.94254 22.2148 7.52003 22.2148 8.23239C23.2361 7.95179 24.437 8.83471 25.0894 7.0803Z" fill="#F0B90B"/>
<path d="M54.6131 6.9393C54.6131 5.9749 54.6131 5.13631 54.6131 4.32893C56.1631 3.61021 56.9929 4.54315 57.7508 5.79942C58.5446 7.11534 59.4122 8.37503 60.4247 9.93173C60.4247 7.83286 60.4247 6.08572 60.4247 4.24199C61.1899 4.24199 61.8789 4.24199 62.6486 4.24199C62.6486 7.50162 62.6486 10.8127 62.6486 14.1322C61.1728 14.8415 60.3559 13.8821 59.5895 12.6371C58.723 11.2296 57.7799 9.88178 56.6799 8.22058C56.6799 10.434 56.6799 12.267 56.6799 14.1921C55.9908 14.1921 55.3764 14.1921 54.6131 14.1921C54.6131 11.8452 54.6131 9.45515 54.6131 6.9393Z" fill="#F0B90B"/>
<path d="M34.3309 12.489C34.3309 9.66997 34.3309 6.97556 34.3309 4.26144C35.6756 3.91591 36.621 4.17816 37.3754 5.58857C38.1843 7.10056 39.2672 8.42698 40.3454 10.0023C40.3454 8.00602 40.3454 6.15601 40.3454 4.2262C41.0832 4.2262 41.6972 4.2262 42.3785 4.2262C42.3785 7.52795 42.3785 10.8391 42.3785 14.1963C41.1972 14.479 40.36 14.254 39.6608 12.9224C38.8507 11.3795 37.719 10.0503 36.6205 8.47584C36.6205 10.4633 36.6205 12.289 36.6205 14.1986C35.8443 14.1986 35.155 14.1986 34.3309 14.1986C34.3309 13.6803 34.3309 13.147 34.3309 12.489Z" fill="#F0B90B"/>
<path d="M74.2186 6.9382C74.2186 5.97439 74.2186 5.13642 74.2186 4.22131C76.4726 4.22131 78.6633 4.22131 80.917 4.22131C80.917 4.83421 80.917 5.44024 80.917 6.16743C79.3773 6.16743 77.8577 6.16743 76.2944 6.16743C76.2944 6.86431 76.2944 7.44276 76.2944 8.14156C77.641 8.14156 79.0105 8.14156 80.4533 8.14156C80.4533 8.86333 80.4533 9.46899 80.4533 10.1989C79.1023 10.1989 77.7334 10.1989 76.3071 10.1989C76.3071 10.9232 76.3071 11.5291 76.3071 12.2561C77.853 12.2561 79.3726 12.2561 80.9336 12.2561C80.9336 12.9532 80.9336 13.5316 80.9336 14.1975C78.7535 14.1975 76.5605 14.1975 74.2186 14.1975C74.2186 11.8392 74.2186 9.45163 74.2186 6.9382Z" fill="#F0B90B"/>
<path d="M44.3438 14.2844C44.0681 14.2844 43.8864 14.2844 43.6395 14.2844C44.841 11.0805 45.9938 7.93918 47.1995 4.82388C47.7017 3.52631 48.7527 4.40581 49.5115 4.13825C50.7921 7.51175 52.0462 10.8156 53.3108 14.1471C51.2912 14.4864 51.2986 14.4823 50.4498 12.5479C50.3533 12.3279 50.1227 12.0405 49.9443 12.0313C48.9723 11.9812 47.9939 11.961 47.0254 12.0442C46.7958 12.064 46.4522 12.4916 46.4069 12.7804C46.2022 14.0873 45.5234 14.4949 44.3438 14.2844ZM48.2804 7.83016C48.0073 8.51977 47.7341 9.20937 47.4572 9.90839C48.1551 9.90839 48.7676 9.90839 49.4469 9.90839C49.1959 9.19475 48.9776 8.56209 48.7496 7.93388C48.6954 7.78463 48.6186 7.64207 48.5326 7.51288C48.4952 7.45662 48.4085 7.44184 48.3442 7.40822C48.3299 7.48816 48.3156 7.56809 48.2804 7.83016Z" fill="#F0B90B"/>
<path d="M71.6451 13.718C68.7518 15.312 65.911 14.3444 64.7411 11.441C63.7757 9.04517 64.4923 6.15476 66.4077 4.71877C68.326 3.28062 71.1531 3.68626 72.6421 5.63586C72.1778 6.09515 71.7093 6.5586 71.1867 7.07551C69.0401 6.03479 67.7684 6.07984 67.051 7.31299C66.2691 8.65699 66.4255 10.6172 67.3883 11.5403C68.5548 12.6586 69.8393 12.5108 71.4374 11.0744C72.9457 12.6483 72.9457 12.6483 71.6451 13.718Z" fill="#F0B90B"/>
<path d="M8.69488 13.6253C9.39846 12.8004 10.0878 12.0815 10.7141 11.2986C11.2169 10.67 11.6278 10.5304 12.1611 11.2545C12.5378 11.7659 13.0053 12.1927 13.3608 12.5795C11.6521 14.4996 10.0154 16.3387 8.48496 18.0586C6.95485 16.3397 5.29932 14.4799 3.69714 12.68C4.1205 12.1951 4.71196 11.5177 5.36079 10.7746C6.24725 11.7055 7.21039 12.7292 8.19427 13.7271C8.27524 13.8092 8.49703 13.7156 8.69488 13.6253Z" fill="#F0B90B"/>
<path d="M3.73273 5.22859C5.28588 3.45723 6.78387 1.75133 8.18058 0.160767C9.88507 2.07583 11.5383 3.93325 13.1465 5.74018C12.7162 6.22224 12.119 6.89123 11.4184 7.67597C10.5413 6.60492 9.5656 5.41356 8.53878 4.15976C7.34141 5.50448 6.31971 6.65191 5.21938 7.88765C4.76176 7.33702 4.22724 6.74483 3.75682 6.094C3.63029 5.91894 3.69867 5.56557 3.73273 5.22859Z" fill="#F0B90B"/>
<path d="M30.521 14.2847C30.2182 14.0342 29.9844 13.808 29.839 13.5244C29.758 13.3664 29.8241 13.1129 29.8241 12.9024C29.8241 10.0432 29.8241 7.18397 29.8241 4.2345C30.478 4.2345 31.0911 4.2345 31.7792 4.2345C31.7792 7.50086 31.7792 10.8049 31.7792 14.2849C31.4127 14.2849 31.0197 14.2849 30.521 14.2847Z" fill="#F0B90B"/>
<path d="M15.1123 10.933C14.8665 11.0313 14.5964 11.1742 14.5054 11.0853C14.0281 10.619 13.5547 10.13 13.1702 9.57047C13.028 9.36341 13.0179 8.8579 13.1474 8.63656C13.4085 8.19041 13.7648 7.77062 14.1646 7.48864C14.3887 7.33063 14.8683 7.33171 15.0764 7.50238C15.6381 7.96299 16.1159 8.55292 16.8362 9.31195C16.1939 9.91297 15.6823 10.3918 15.1123 10.933Z" fill="#F0B90B"/>
<path d="M7.57262 8.00921C7.825 7.64031 8.02048 7.33482 8.17654 7.09094C8.90185 7.94085 9.48332 8.62221 10.0239 9.25564C9.55336 9.75225 8.94074 10.3988 8.31597 11.0582C7.90546 10.5443 7.34337 9.84073 6.78127 9.13713C6.60739 9.05539 6.43352 8.97365 6.25964 8.89192C6.67834 8.61882 7.09703 8.34572 7.57262 8.00921Z" fill="#F0B90B"/>
</g>
<defs>
<clipPath id="clip0_176_39421">
<rect width="80.6761" height="18" fill="white" transform="translate(0.30304 0.0882568)"/>
</clipPath>
</defs>
</svg>
