<svg width="103" height="28" viewBox="0 0 103 28" fill="none" xmlns="http://www.w3.org/2000/svg">
<path d="M38.7236 21.8008V6.10461H49.2586L49.058 9.51749H42.446V12.615H48.9677V15.9618H42.446V21.8008H38.7236Z" fill="white"/>
<path d="M51.0595 21.8008V4.64487H54.6815V21.8008H51.0595Z" fill="white"/>
<path d="M59.5628 10.5755L61.8454 16.679H61.8906L64.1731 10.5755H67.9356V10.957L62.7083 23.9574C61.8454 26.0936 60.5361 27.4415 58.0779 27.4415C57.9475 27.4415 57.7016 27.4161 57.5261 27.3957L56.1515 24.049C56.5399 24.1097 56.9324 24.1386 57.3254 24.1354C57.7311 24.178 58.1389 24.0772 58.4799 23.8502C58.8208 23.6232 59.074 23.2837 59.1966 22.8893L59.924 21.1142L55.7853 10.9417V10.5602L59.5628 10.5755Z" fill="white"/>
<path d="M73.1228 21.8008H69.4255V6.10461H75.4907C79.4338 6.10461 81.0542 8.61722 81.0542 11.2672C81.0542 13.9171 79.4338 16.389 75.4907 16.389H73.1228V21.8008ZM73.1228 9.29369V13.1999H74.9188C76.5341 13.1999 77.2415 12.4166 77.2415 11.2468C77.2415 10.077 76.5542 9.29369 74.9188 9.29369H73.1228Z" fill="white"/>
<path d="M82.6696 10.5755H86.2866V12.4828C86.8384 11.5418 87.7916 10.3517 89.407 10.3517C89.8032 10.3494 90.198 10.4007 90.5809 10.5043L90.2999 14.2783C89.8836 14.0819 89.4341 13.968 88.9755 13.9426C87.7565 13.9426 86.8234 15.0005 86.3167 15.738V21.8008H82.6847L82.6696 10.5755Z" fill="white"/>
<path d="M96.8666 10.3516C97.6296 10.3337 98.3883 10.4722 99.0973 10.7588C99.8062 11.0454 100.451 11.4742 100.992 12.0194C101.534 12.5647 101.961 13.2152 102.249 13.9319C102.536 14.6487 102.678 15.417 102.666 16.1907C102.666 17.7541 102.053 19.2535 100.963 20.359C99.8725 21.4645 98.3936 22.0856 96.8516 22.0856C95.3095 22.0856 93.8306 21.4645 92.7402 20.359C91.6498 19.2535 91.0372 17.7541 91.0372 16.1907C91.0262 15.4147 91.1699 14.6445 91.4598 13.9263C91.7497 13.2081 92.1799 12.5568 92.7244 12.0114C93.2689 11.466 93.9165 11.0378 94.6283 10.7526C95.3401 10.4674 96.1015 10.331 96.8666 10.3516ZM96.8666 18.6829C98.2362 18.6829 99.0338 17.4673 99.0338 16.1907C99.0338 14.914 98.2362 13.6933 96.8666 13.6933C95.4971 13.6933 94.6944 14.8835 94.6944 16.1907C94.6944 17.4978 95.472 18.6829 96.8666 18.6829Z" fill="white"/>
<path d="M3.77257 26.0885C3.77257 25.0323 2.92806 24.1761 1.88631 24.1761C0.844551 24.1761 4.19617e-05 25.0323 4.19617e-05 26.0885C4.19617e-05 27.1447 0.844551 28.0009 1.88631 28.0009C2.92806 28.0009 3.77257 27.1447 3.77257 26.0885Z" fill="#5A9DF8"/>
<path d="M16.9111 0.00116876C20.3476 0.00116876 23.789 0.00116876 27.2304 0.00116876C27.5816 0.00116876 27.7321 0.087635 27.7321 0.479276C27.7321 6.17248 27.7321 11.8606 27.7321 17.5436C27.7321 18.5151 27.7622 19.4917 27.7321 20.4631C27.7311 22.0888 27.2022 23.6689 26.2271 24.9594C25.2252 26.3566 23.7431 27.3221 22.0733 27.6653C21.5254 27.7712 20.9702 27.8341 20.4128 27.8535C18.5828 27.9147 16.7518 27.7662 14.9547 27.411C12.1349 26.9047 9.46569 25.7551 7.14873 24.049C6.55035 23.6132 5.98827 23.1284 5.46815 22.5994C4.32093 21.4205 3.34616 20.0811 2.57354 18.6219C1.87398 17.2417 1.32879 15.7864 0.948138 14.2834C0.744278 13.4912 0.595089 12.6856 0.501655 11.8725C0.31224 10.498 0.19502 9.11428 0.150489 7.72718C0.130422 4.49741 1.61034 2.13739 4.43973 0.667467C5.35428 0.208763 6.36438 -0.0197859 7.38451 0.00116876H16.9111ZM16.4095 11.43C16.4044 11.5206 16.3926 11.6107 16.3744 11.6995C16.0433 12.61 15.677 13.5052 15.371 14.4258C14.8138 16.1712 14.5774 18.0055 14.6737 19.8375C14.7049 21.176 15.0989 22.4799 15.8125 23.6064C16.3739 24.483 17.1779 25.172 18.1239 25.5873C19.0698 26.0026 20.1156 26.1256 21.1302 25.941C23.2622 25.6613 24.6769 24.4152 25.4896 22.4061C25.7972 21.5013 25.9218 20.543 25.8559 19.5883C25.8559 18.3574 25.8559 17.1266 25.8559 15.8957V12.2082C25.8559 10.9773 25.8559 9.74642 25.8559 8.51555C25.8559 7.28468 25.8559 6.04872 25.8559 4.81785V3.45982C25.8559 3.23094 25.8559 3.00206 25.8559 2.77826C25.876 2.56682 25.876 2.35392 25.8559 2.14248C25.8453 2.08422 25.8223 2.02901 25.7885 1.98069C25.7547 1.93237 25.7109 1.89212 25.6602 1.86274C25.5898 1.83573 25.5147 1.82361 25.4395 1.82713H24.5816C24.2706 1.82713 23.9696 1.82713 23.6586 1.82713H21.8375C20.6235 1.82713 19.3994 1.88308 18.1854 1.88308H7.27415C6.00311 1.86559 4.77618 2.35513 3.8578 3.2462C2.27254 4.77207 1.59529 6.68959 2.20732 8.90719C2.50455 10.0925 3.19771 11.1368 4.16883 11.8623C5.50074 12.7986 7.09399 13.2764 8.71393 13.2254C10.4206 13.236 12.1167 12.954 13.7306 12.3913C14.5935 12.0861 15.4814 11.7707 16.4195 11.4351L16.4095 11.43Z" fill="url(#paint0_linear_175_21065)"/>
<path d="M23.1218 4.72621C22.2338 8.04244 21.3459 11.3383 20.4278 14.7766C20.3035 14.6391 20.1911 14.4911 20.0917 14.3341C19.565 13.2813 19.0031 12.2081 18.4312 11.1908C18.3519 11.066 18.3154 10.9182 18.3272 10.7702C18.3389 10.6222 18.3984 10.4823 18.4964 10.3719L20.4629 7.63045C20.5532 7.5033 20.6185 7.36597 20.6987 7.23373L20.5683 7.08623C20.3124 7.24899 20.0666 7.40157 19.8007 7.59485C19.0081 8.15942 18.2155 8.73417 17.4279 9.30383C17.315 9.39955 17.1754 9.45694 17.0287 9.46789C16.882 9.47884 16.7356 9.4428 16.6102 9.36486C15.5115 8.76469 14.3978 8.18994 13.2891 7.60502C13.2064 7.54244 13.1307 7.4708 13.0634 7.3914L22.9863 4.63974L23.1218 4.72621Z" fill="#5A9DF8"/>
<defs>
<linearGradient id="paint0_linear_175_21065" x1="7.86109" y1="24.5983" x2="23.5878" y2="-2.26785" gradientUnits="userSpaceOnUse">
<stop stop-color="#192AE9"/>
<stop offset="1" stop-color="#7BD8D9"/>
</linearGradient>
</defs>
</svg>
