<svg width="136" height="40" viewBox="0 0 136 40" fill="none" xmlns="http://www.w3.org/2000/svg">
<rect x="0.5" y="0.5" width="135" height="39" rx="7.5" fill="black"/>
<rect x="0.5" y="0.5" width="135" height="39" rx="7.5" stroke="#A6A6A6"/>
<path d="M68.136 17.704C65.784 17.704 63.867 19.493 63.867 21.957C63.867 24.406 65.784 26.21 68.136 26.21C70.489 26.21 72.406 24.406 72.406 21.957C72.405 19.493 70.488 17.704 68.136 17.704ZM68.136 24.536C66.847 24.536 65.736 23.473 65.736 21.958C65.736 20.427 66.848 19.38 68.136 19.38C69.425 19.38 70.536 20.427 70.536 21.958C70.536 23.472 69.425 24.536 68.136 24.536ZM58.822 17.704C56.47 17.704 54.553 19.493 54.553 21.957C54.553 24.406 56.47 26.21 58.822 26.21C61.175 26.21 63.092 24.406 63.092 21.957C63.092 19.493 61.175 17.704 58.822 17.704ZM58.822 24.536C57.533 24.536 56.422 23.473 56.422 21.958C56.422 20.427 57.534 19.38 58.822 19.38C60.111 19.38 61.222 20.427 61.222 21.958C61.223 23.472 60.111 24.536 58.822 24.536ZM47.744 19.01V20.814H52.062C51.933 21.829 51.595 22.57 51.079 23.085C50.451 23.713 49.468 24.406 47.744 24.406C45.086 24.406 43.008 22.263 43.008 19.605C43.008 16.947 45.086 14.804 47.744 14.804C49.178 14.804 50.225 15.368 50.998 16.093L52.271 14.82C51.191 13.789 49.758 13 47.744 13C44.103 13 41.042 15.964 41.042 19.605C41.042 23.246 44.103 26.21 47.744 26.21C49.709 26.21 51.192 25.565 52.351 24.357C53.543 23.165 53.914 21.489 53.914 20.136C53.914 19.718 53.882 19.331 53.817 19.009H47.744V19.01ZM93.052 20.411C92.698 19.461 91.618 17.704 89.411 17.704C87.22 17.704 85.399 19.428 85.399 21.957C85.399 24.341 87.204 26.21 89.62 26.21C91.569 26.21 92.697 25.018 93.165 24.325L91.715 23.358C91.232 24.067 90.571 24.534 89.62 24.534C88.67 24.534 87.993 24.099 87.558 23.245L93.245 20.893L93.052 20.411ZM87.252 21.829C87.204 20.185 88.525 19.348 89.476 19.348C90.217 19.348 90.845 19.719 91.055 20.25L87.252 21.829ZM82.629 25.953H84.497V13.452H82.629V25.953ZM79.567 18.655H79.503C79.084 18.155 78.278 17.704 77.264 17.704C75.137 17.704 73.188 19.573 73.188 21.974C73.188 24.358 75.137 26.211 77.264 26.211C78.279 26.211 79.084 25.76 79.503 25.245H79.567V25.857C79.567 27.484 78.697 28.354 77.296 28.354C76.152 28.354 75.443 27.533 75.153 26.84L73.526 27.517C73.993 28.644 75.233 30.03 77.296 30.03C79.487 30.03 81.34 28.741 81.34 25.599V17.963H79.568V18.655H79.567ZM77.425 24.536C76.136 24.536 75.057 23.456 75.057 21.974C75.057 20.475 76.136 19.38 77.425 19.38C78.697 19.38 79.696 20.475 79.696 21.974C79.696 23.456 78.697 24.536 77.425 24.536ZM101.806 13.452H97.335V25.953H99.2V21.217H101.805C103.873 21.217 105.907 19.72 105.907 17.335C105.907 14.95 103.874 13.452 101.806 13.452ZM101.854 19.477H99.2V15.192H101.854C103.249 15.192 104.041 16.347 104.041 17.335C104.041 18.303 103.249 19.477 101.854 19.477ZM113.386 17.682C112.035 17.682 110.636 18.277 110.057 19.596L111.713 20.287C112.067 19.596 112.727 19.37 113.418 19.37C114.383 19.37 115.364 19.949 115.38 20.978V21.107C115.042 20.914 114.318 20.625 113.434 20.625C111.649 20.625 109.831 21.606 109.831 23.439C109.831 25.112 111.295 26.189 112.935 26.189C114.189 26.189 114.881 25.626 115.315 24.966H115.379V25.931H117.181V21.138C117.182 18.92 115.524 17.682 113.386 17.682ZM113.16 24.533C112.55 24.533 111.697 24.227 111.697 23.471C111.697 22.506 112.759 22.136 113.676 22.136C114.495 22.136 114.882 22.313 115.38 22.554C115.235 23.713 114.238 24.533 113.16 24.533ZM123.743 17.955L121.604 23.375H121.54L119.32 17.955H117.31L120.639 25.53L118.741 29.744H120.687L125.818 17.955H123.743ZM106.937 25.953H108.802V13.452H106.937V25.953Z" fill="white"/>
<path d="M20.7401 19.2795L10.1001 30.5795C10.4301 31.8095 11.5501 32.7095 12.8801 32.7095C13.4101 32.7095 13.9101 32.5695 14.3401 32.3095L14.3701 32.2895L26.3501 25.3795L20.7401 19.2695V19.2795Z" fill="#EA4335"/>
<path d="M31.5198 17.3596H31.5098L26.3398 14.3496L20.5098 19.5396L26.3598 25.3896L31.5098 22.4196C32.4098 21.9296 33.0198 20.9796 33.0198 19.8896C33.0198 18.7996 32.4198 17.8496 31.5198 17.3696V17.3596Z" fill="#FBBC04"/>
<path d="M10.1 9.13965C10.04 9.37965 10 9.61965 10 9.87965V29.8496C10 30.1096 10.03 30.3496 10.1 30.5896L21.11 19.5796L10.1 9.13965Z" fill="#4285F4"/>
<path d="M20.8201 19.86L26.3301 14.35L14.3601 7.41C13.9301 7.15 13.4201 7 12.8701 7C11.5501 7 10.4201 7.91 10.1001 9.13L20.8301 19.85L20.8201 19.86Z" fill="#34A853"/>
</svg>
