<svg width="48" height="57" viewBox="0 0 48 57" fill="none" xmlns="http://www.w3.org/2000/svg">
<path d="M42.4717 6.28292L26.8883 0.44625C25.2733 -0.14875 22.6383 -0.14875 21.0233 0.44625L5.44 6.28292C2.43667 7.41625 0 10.9296 0 14.1312V37.0812C0 39.3762 1.50167 42.4079 3.34333 43.7679L18.9267 55.4129C21.675 57.4812 26.18 57.4812 28.9283 55.4129L44.5117 43.7679C46.3533 42.3796 47.855 39.3762 47.855 37.0812V14.1312C47.8833 10.9296 45.4467 7.41625 42.4717 6.28292V6.28292ZM33.8017 22.1496L21.6183 34.3329C21.1933 34.7579 20.655 34.9562 20.1167 34.9562C19.5783 34.9562 19.04 34.7579 18.615 34.3329L14.0817 29.7429C13.6865 29.343 13.4648 28.8035 13.4648 28.2412C13.4648 27.679 13.6865 27.1395 14.0817 26.7396C14.9033 25.9179 16.2633 25.9179 17.085 26.7396L20.145 29.7996L30.8267 19.1179C31.6483 18.2962 33.0083 18.2962 33.83 19.1179C34.6517 19.9396 34.6517 21.3279 33.8017 22.1496V22.1496Z" fill="#FFDB76"/>
</svg>
