<svg width="79" height="24" viewBox="0 0 79 24" fill="none" xmlns="http://www.w3.org/2000/svg">
<g clip-path="url(#clip0_176_39509)">
<path fill-rule="evenodd" clip-rule="evenodd" d="M76.7119 17.8048C75.2345 17.8048 74.269 18.4031 74.269 19.327C74.269 20.1969 75.0072 20.5234 76.2003 20.7407L76.7684 20.8492C77.6206 21.0122 78.0748 21.2841 78.0748 21.7191C78.0748 22.1537 77.621 22.4805 76.4844 22.4805C75.4621 22.4805 74.6664 22.1537 74.4391 21.9906L74.2115 22.7521C74.4391 22.8606 75.2345 23.187 76.4272 23.187C78.0186 23.187 78.9276 22.5887 78.9276 21.6648C78.9276 20.7953 78.1319 20.3603 76.8821 20.1426L76.3139 20.0338C75.4049 19.8708 75.1209 19.7077 75.1209 19.2727C75.1209 18.8381 75.6325 18.512 76.6545 18.512C77.507 18.512 78.1319 18.6747 78.416 18.7835L78.5871 18.1313C78.2459 18.0228 77.6206 17.8048 76.7119 17.8048ZM25.4134 23.1325H26.2649L23.7087 18.1313C23.5954 17.9679 23.4814 17.9136 23.3113 17.9136H22.6864L20.0165 23.1325H20.8683L21.5504 21.7737H24.7313L25.4134 23.1325ZM35.9224 23.1325V21.2299C36.3204 21.4469 36.8885 21.556 37.5138 21.556C37.8544 21.556 38.082 21.556 38.3653 21.5018L39.5016 23.1325H40.4106L39.1607 21.2841C39.9568 20.958 40.4674 20.3057 40.4674 19.5446C40.4674 18.5662 39.6156 17.8594 38.0816 17.8594H35.0709V23.1325H35.9224ZM57.0561 23.1325V18.8381L60.805 22.9148C60.9187 23.0782 61.0891 23.1325 61.316 23.1325H61.828V17.9136H61.0323V22.0456L57.3395 18.1316C57.2262 17.9682 57.1132 17.9139 56.8288 17.9139H56.2604V23.1328L57.0561 23.1325ZM24.3904 21.0668H21.8913L23.1409 18.6208L24.3904 21.0668ZM37.5703 20.8492C36.945 20.8492 36.3204 20.6864 35.9224 20.4688V18.512H38.1384C39.2182 18.512 39.6156 19.0554 39.6156 19.5443C39.6156 20.2511 39.0468 20.8492 37.5703 20.8492ZM44.1031 23.1325H48.08V22.4256H44.9553V17.9136H44.1031V23.1325ZM30.0142 23.1325H30.8671V17.9136H30.0145L30.0142 23.1325ZM66.0883 17.9136V23.1325H70.4629V22.371H66.9408V20.7403H70.0077V20.0335H66.9408V18.6201H70.3489V17.9133L66.0883 17.9136ZM51.2044 23.1325H52.0572V17.9136H51.2044V23.1325ZM38.6497 12.2167H41.2967L37.174 4.44401C36.9578 4.06133 36.744 3.91536 36.2505 3.91536H33.9746L29.6363 12.2167H32.2807L33.0505 10.6863H37.9115L38.6497 12.2167ZM60.3421 12.2167H62.9569L58.8327 4.44401C58.6189 4.06133 58.4038 3.91536 57.912 3.91536H55.6351L51.2965 12.2167H53.9425L54.7113 10.6863H59.573L60.3421 12.2167ZM69.6635 10.1859C69.7573 10.4802 70.1257 10.6863 70.5257 10.6863H73.0181L74.864 5.80084L76.6171 12.2167H78.9552L77.0175 4.85793C76.835 4.12182 76.4027 3.91536 75.6954 3.91536H73.2642L71.5114 8.77355L70.1257 4.64982C69.9425 4.12182 69.6023 3.91536 69.0489 3.91536H66.3115L64.0645 12.2167H66.4352L68.1557 5.80084L69.6635 10.1859ZM58.7131 9.00763H55.4808L57.1132 5.68149L58.7131 9.00763ZM37.0502 9.00763H33.8203L35.4521 5.68149L37.0502 9.00763ZM27.7904 12.2167L28.7744 10.3026H22.9587V3.91536H20.467V12.2167H27.7904ZM45.082 12.2167H47.4799V5.82878L51.6663 5.5638V3.91536H40.8967V5.5638L45.082 5.82845V12.2167ZM3.58214 20.6473L5.70539 19.9079C6.14779 19.754 6.14779 20.0946 6.14779 20.6026V21.5376C6.14779 22.2938 5.88221 22.3858 5.52856 22.5091L3.58214 23.187V20.6473ZM3.58214 16.4996L8.97868 14.62C9.42074 14.4662 9.42074 14.8064 9.42074 15.3144V16.2454C9.42074 17.0056 9.15517 17.0979 8.80152 17.2212L3.58214 19.0393V16.4992M3.14007 10.5893L0.397596 9.63426C0.0439453 9.51097 0.0439453 9.05037 0.0439453 8.88139C0.0439453 8.88139 0.0439453 9.43634 0.574422 9.25158L14.0209 4.56829C15.0825 4.19843 15.0825 3.91338 14.6401 3.75952C15.0825 3.91338 15.0825 3.91338 15.0825 5.15678C15.0825 6.34166 15.0825 6.73815 14.5517 6.92292L4.02454 10.5893C3.58214 10.7435 3.58214 10.7435 3.14007 10.5893Z" fill="#1B0088"/>
<path fill-rule="evenodd" clip-rule="evenodd" d="M1.19365 5.76365L5.89129 7.39959L9.53706 6.1299L0.751584 3.07006C0.132358 2.85439 0.0439453 2.82348 0.0439453 3.24694V4.34732C0.0439453 5.36321 0.839996 5.64036 1.19365 5.76365ZM14.6405 7.90721L13.1828 7.39959L9.53706 8.66929L11.8459 9.47346L14.0209 8.71598C15.0825 8.34644 15.0829 8.0614 14.6405 7.90721Z" fill="#ED1650"/>
<path fill-rule="evenodd" clip-rule="evenodd" d="M14.6404 7.90698C15.0824 8.06117 15.0824 8.34622 14.0208 8.71575L3.58203 12.3516V14.891L14.5516 11.0707C15.0824 10.8856 15.0824 10.4891 15.0824 9.30391C15.0824 8.06117 15.0827 8.06117 14.6404 7.90698Z" fill="#1B0088"/>
<path fill-rule="evenodd" clip-rule="evenodd" d="M14.6403 3.75934L4.28965 0.154411C3.67076 -0.0612607 3.58201 -0.0921648 3.58201 0.331287V1.43167C3.58201 2.44756 4.37807 2.72471 4.73172 2.848L11.8458 5.32559L14.0208 4.56811C15.0824 4.19825 15.0827 3.9132 14.6403 3.75934ZM0.5743 9.2514L3.58235 8.20362L0.751462 7.21764C0.132236 7.00197 0.0438232 6.9714 0.0438232 7.39452V8.88088C0.0438232 8.88088 0.0438232 9.43616 0.5743 9.2514Z" fill="#ED1650"/>
</g>
<defs>
<clipPath id="clip0_176_39509">
<rect width="79" height="24" fill="white"/>
</clipPath>
</defs>
</svg>
