<svg width="103" height="17" viewBox="0 0 103 17" fill="none" xmlns="http://www.w3.org/2000/svg">
<g clip-path="url(#clip0_176_39438)">
<path d="M8.97946 16.0883C13.3977 16.0883 16.9795 12.5065 16.9795 8.08826C16.9795 3.66998 13.3977 0.0882568 8.97946 0.0882568C4.56118 0.0882568 0.979462 3.66998 0.979462 8.08826C0.979462 12.5065 4.56118 16.0883 8.97946 16.0883Z" fill="#FF0420"/>
<path d="M6.647 10.2136C6.1702 10.2136 5.7798 10.1016 5.4758 9.87758C5.175 9.65038 5.0246 9.32398 5.0246 8.90478C5.0246 8.81518 5.0342 8.70958 5.0534 8.58158C5.1046 8.29358 5.1782 7.94798 5.2742 7.54158C5.5462 6.44078 6.2502 5.89038 7.383 5.89038C7.6902 5.89038 7.9686 5.94158 8.2118 6.04718C8.455 6.14638 8.647 6.29998 8.7878 6.50478C8.9286 6.70638 8.999 6.94638 8.999 7.22478C8.999 7.30798 8.9894 7.41358 8.9702 7.54158C8.9094 7.89678 8.839 8.24558 8.7526 8.58158C8.6118 9.12878 8.3718 9.54158 8.0262 9.81358C7.6838 10.0824 7.223 10.2136 6.647 10.2136ZM6.7334 9.34958C6.9574 9.34958 7.1462 9.28238 7.303 9.15118C7.463 9.01998 7.5782 8.81838 7.6454 8.54318C7.7382 8.16558 7.8086 7.83918 7.8566 7.55758C7.8726 7.47438 7.8822 7.38798 7.8822 7.29838C7.8822 6.93358 7.6934 6.75118 7.3126 6.75118C7.0886 6.75118 6.8966 6.81838 6.7366 6.94958C6.5798 7.08078 6.4678 7.28238 6.4006 7.55758C6.327 7.82638 6.2566 8.15278 6.183 8.54318C6.167 8.62318 6.1574 8.70638 6.1574 8.79598C6.1542 9.16718 6.3494 9.34958 6.7334 9.34958Z" fill="white"/>
<path d="M9.27708 10.1541C9.23228 10.1541 9.20028 10.1413 9.17468 10.1125C9.15548 10.0805 9.14908 10.0453 9.15548 10.0037L9.98428 6.09974C9.99068 6.05494 10.0131 6.01974 10.0515 5.99094C10.0867 5.96214 10.1251 5.94934 10.1667 5.94934H11.7635C12.2083 5.94934 12.5635 6.04214 12.8323 6.22454C13.1043 6.41014 13.2419 6.67574 13.2419 7.02454C13.2419 7.12374 13.2291 7.22934 13.2067 7.33814C13.1075 7.79894 12.9059 8.13814 12.5987 8.35894C12.2979 8.57974 11.8851 8.68854 11.3603 8.68854H10.5507L10.2755 10.0037C10.2659 10.0485 10.2467 10.0837 10.2083 10.1125C10.1731 10.1413 10.1347 10.1541 10.0931 10.1541H9.27708ZM11.4019 7.85974C11.5715 7.85974 11.7155 7.81494 11.8403 7.72214C11.9683 7.62934 12.0515 7.49814 12.0931 7.32534C12.1059 7.25814 12.1123 7.19734 12.1123 7.14614C12.1123 7.03094 12.0771 6.94134 12.0099 6.88054C11.9427 6.81654 11.8243 6.78454 11.6611 6.78454H10.9411L10.7139 7.85974H11.4019Z" fill="white"/>
</g>
<g clip-path="url(#clip1_176_39438)">
<g clip-path="url(#clip2_176_39438)">
<path d="M23.8181 13.6586C22.5921 13.6586 21.5877 13.3697 20.8047 12.7921C20.0321 12.2041 19.6458 11.3686 19.6458 10.2854C19.6458 10.0585 19.6715 9.77998 19.723 9.44989C19.857 8.70718 20.0476 7.8149 20.2948 6.77304C20.9953 3.93631 22.8033 2.51794 25.7188 2.51794C26.512 2.51794 27.2228 2.65204 27.8513 2.92025C28.4797 3.17813 28.9742 3.57011 29.3347 4.0962C29.6953 4.61197 29.8756 5.23089 29.8756 5.95297C29.8756 6.16959 29.8498 6.44295 29.7983 6.77304C29.6438 7.69111 29.4584 8.5834 29.242 9.44989C28.8814 10.8631 28.2582 11.9204 27.3722 12.6219C26.4863 13.313 25.3015 13.6586 23.8181 13.6586ZM24.0344 11.4304C24.6113 11.4304 25.1006 11.2602 25.5024 10.9198C25.9145 10.5794 26.2081 10.0585 26.3832 9.35705C26.6202 8.3874 26.8005 7.54154 26.9241 6.81946C26.9653 6.60284 26.9859 6.38106 26.9859 6.15412C26.9859 5.21542 26.4966 4.74607 25.5179 4.74607C24.941 4.74607 24.4465 4.91627 24.0344 5.25668C23.6326 5.59709 23.3442 6.11802 23.169 6.81946C22.9836 7.5106 22.7982 8.35646 22.6127 9.35705C22.5715 9.56336 22.5509 9.77998 22.5509 10.0069C22.5509 10.9559 23.0454 11.4304 24.0344 11.4304Z" fill="#121217"/>
<path d="M31.4436 13.5038C31.3303 13.5038 31.2427 13.4677 31.1809 13.3955C31.1294 13.313 31.1139 13.2202 31.1345 13.117L33.267 3.0595C33.2876 2.94603 33.3443 2.85319 33.437 2.78099C33.5297 2.70878 33.6276 2.67268 33.7306 2.67268H37.8411C38.9846 2.67268 39.9015 2.90993 40.5917 3.38444C41.2922 3.85895 41.6425 4.54492 41.6425 5.44236C41.6425 5.70024 41.6116 5.96844 41.5498 6.24696C41.2922 7.43323 40.772 8.31004 39.989 8.87738C39.2164 9.44473 38.1553 9.7284 36.8057 9.7284H34.7196L34.0088 13.117C33.9882 13.2305 33.9315 13.3233 33.8388 13.3955C33.7461 13.4677 33.6482 13.5038 33.5452 13.5038H31.4436ZM36.9139 7.59312C37.3466 7.59312 37.7226 7.47449 38.042 7.23724C38.3716 6.99998 38.588 6.65957 38.691 6.21601C38.7219 6.04065 38.7373 5.88592 38.7373 5.75182C38.7373 5.45267 38.6498 5.22574 38.4746 5.071C38.2995 4.90596 38.0007 4.82343 37.5784 4.82343H35.724L35.1368 7.59312H36.9139Z" fill="#121217"/>
<path d="M45.1242 13.5038C45.0109 13.5038 44.9233 13.4677 44.8615 13.3955C44.7997 13.313 44.7791 13.2202 44.7997 13.117L46.515 5.10195H43.7644C43.651 5.10195 43.5635 5.06585 43.5017 4.99364C43.4501 4.91112 43.4347 4.81828 43.4553 4.71512L43.8107 3.0595C43.8313 2.94603 43.888 2.85319 43.9807 2.78099C44.0734 2.70878 44.1713 2.67268 44.2743 2.67268H52.5879C52.7013 2.67268 52.7888 2.70878 52.8506 2.78099C52.8919 2.84288 52.9125 2.90477 52.9125 2.96666C52.9125 2.99761 52.9073 3.02856 52.897 3.0595L52.5416 4.71512C52.521 4.82859 52.4643 4.92143 52.3716 4.99364C52.2892 5.06585 52.1913 5.10195 52.078 5.10195H49.3428L47.6276 13.117C47.607 13.2305 47.5503 13.3233 47.4576 13.3955C47.3649 13.4677 47.267 13.5038 47.164 13.5038H45.1242Z" fill="#121217"/>
<path d="M53.3066 13.5038C53.1933 13.5038 53.1058 13.4677 53.0439 13.3955C52.9821 13.313 52.9615 13.2202 52.9821 13.117L55.1301 3.0595C55.1507 2.94603 55.2073 2.85319 55.3001 2.78099C55.3928 2.70878 55.4906 2.67268 55.5937 2.67268H57.6798C57.7931 2.67268 57.8807 2.70878 57.9425 2.78099C57.9837 2.84288 58.0043 2.90477 58.0043 2.96666C58.0043 2.99761 57.9992 3.02856 57.9889 3.0595L55.8564 13.117C55.8358 13.2305 55.7791 13.3233 55.6864 13.3955C55.5937 13.4677 55.4958 13.5038 55.3928 13.5038H53.3066Z" fill="#121217"/>
<path d="M59.1907 13.5038C59.0774 13.5038 58.9898 13.4677 58.928 13.3955C58.8662 13.3233 58.8456 13.2305 58.8662 13.117L60.9987 3.0595C61.0193 2.94603 61.0759 2.85319 61.1687 2.78099C61.2614 2.70878 61.3644 2.67268 61.4777 2.67268H63.1466C63.3939 2.67268 63.5536 2.78614 63.6257 3.01308L65.31 7.88711L69.0651 3.01308C69.1166 2.93056 69.1887 2.85319 69.2814 2.78099C69.3844 2.70878 69.5081 2.67268 69.6523 2.67268H71.3366C71.45 2.67268 71.5375 2.70878 71.5993 2.78099C71.6406 2.84288 71.6612 2.90477 71.6612 2.96666C71.6612 2.99761 71.656 3.02856 71.6457 3.0595L69.5132 13.117C69.4926 13.2305 69.4359 13.3233 69.3432 13.3955C69.2505 13.4677 69.1526 13.5038 69.0496 13.5038H67.1798C67.0665 13.5038 66.9789 13.4677 66.9171 13.3955C66.8656 13.313 66.8502 13.2202 66.8708 13.117L68.0761 7.40744L65.7118 10.5485C65.6088 10.6619 65.5109 10.7496 65.4182 10.8115C65.3255 10.8734 65.2173 10.9044 65.0937 10.9044H64.2901C64.0738 10.9044 63.9244 10.7857 63.842 10.5485L62.7449 7.26818L61.5086 13.117C61.488 13.2305 61.4314 13.3233 61.3386 13.3955C61.2459 13.4677 61.1481 13.5038 61.045 13.5038H59.1907Z" fill="#121217"/>
<path d="M72.8306 13.5038C72.7173 13.5038 72.6298 13.4677 72.5679 13.3955C72.5061 13.313 72.4855 13.2202 72.5061 13.117L74.6541 3.0595C74.6747 2.94603 74.7313 2.85319 74.8241 2.78099C74.9168 2.70878 75.0147 2.67268 75.1177 2.67268H77.2038C77.3171 2.67268 77.4047 2.70878 77.4665 2.78099C77.5077 2.84288 77.5283 2.90477 77.5283 2.96666C77.5283 2.99761 77.5232 3.02856 77.5129 3.0595L75.3804 13.117C75.3598 13.2305 75.3031 13.3233 75.2104 13.3955C75.1177 13.4677 75.0198 13.5038 74.9168 13.5038H72.8306Z" fill="#121217"/>
<path d="M82.5316 13.6586C81.625 13.6586 80.8472 13.5348 80.1982 13.2872C79.5595 13.0396 79.0753 12.7096 78.7456 12.2969C78.4262 11.8843 78.2666 11.4253 78.2666 10.9198C78.2666 10.8373 78.2769 10.7135 78.2975 10.5485C78.3181 10.4556 78.3593 10.3783 78.4211 10.3164C78.4932 10.2545 78.5756 10.2235 78.6683 10.2235H80.6463C80.7699 10.2235 80.8626 10.2442 80.9245 10.2854C80.9966 10.3267 81.0687 10.3989 81.1408 10.5021C81.2129 10.7703 81.3777 10.992 81.6353 11.1674C81.9031 11.3428 82.2689 11.4304 82.7324 11.4304C83.3197 11.4304 83.7935 11.3376 84.1541 11.1519C84.5147 10.9663 84.731 10.7135 84.8031 10.3937C84.8134 10.3525 84.8186 10.2906 84.8186 10.2081C84.8186 9.95019 84.6589 9.74904 84.3395 9.60462C84.0202 9.44989 83.433 9.26937 82.5779 9.06306C81.5786 8.84644 80.8214 8.5215 80.3063 8.08826C79.7912 7.6447 79.5337 7.06703 79.5337 6.35527C79.5337 6.1077 79.5646 5.85497 79.6264 5.59709C79.8325 4.63776 80.3424 3.88473 81.1563 3.33802C81.9804 2.7913 83.0415 2.51794 84.3395 2.51794C85.1225 2.51794 85.8179 2.6572 86.4257 2.93572C87.0335 3.21423 87.5022 3.57011 87.8319 4.00336C88.1719 4.42629 88.3418 4.84922 88.3418 5.27215C88.3418 5.39594 88.3367 5.48362 88.3264 5.5352C88.3058 5.62804 88.2594 5.7054 88.1873 5.76729C88.1255 5.82919 88.0482 5.86013 87.9555 5.86013H85.8848C85.6582 5.86013 85.5037 5.77245 85.4212 5.59709C85.4109 5.35984 85.2873 5.15869 85.0504 4.99364C84.8134 4.82859 84.5044 4.74607 84.1232 4.74607C83.6699 4.74607 83.2939 4.82859 82.9951 4.99364C82.7067 5.15869 82.5264 5.4011 82.4543 5.72087C82.444 5.77245 82.4388 5.8395 82.4388 5.92202C82.4388 6.16959 82.5831 6.3759 82.8715 6.54095C83.1703 6.69568 83.6905 6.85557 84.4323 7.02061C85.5861 7.24755 86.4257 7.57249 86.9511 7.99542C87.4868 8.41835 87.7546 8.98054 87.7546 9.68199C87.7546 9.91924 87.7237 10.1771 87.6619 10.4556C87.4353 11.5078 86.8841 12.3073 86.0085 12.854C85.1431 13.3904 83.9841 13.6586 82.5316 13.6586Z" fill="#121217"/>
<path d="M89.8047 13.5038C89.6914 13.5038 89.6038 13.4677 89.542 13.3955C89.4802 13.3233 89.4596 13.2305 89.4802 13.117L91.6127 3.0595C91.6333 2.94603 91.6899 2.85319 91.7826 2.78099C91.8754 2.70878 91.9784 2.67268 92.0917 2.67268H93.7606C94.0079 2.67268 94.1675 2.78614 94.2396 3.01308L95.924 7.88711L99.6791 3.01308C99.7306 2.93056 99.8027 2.85319 99.8954 2.78099C99.9984 2.70878 100.122 2.67268 100.266 2.67268H101.951C102.064 2.67268 102.152 2.70878 102.213 2.78099C102.255 2.84288 102.275 2.90477 102.275 2.96666C102.275 2.99761 102.27 3.02856 102.26 3.0595L100.127 13.117C100.107 13.2305 100.05 13.3233 99.9572 13.3955C99.8645 13.4677 99.7666 13.5038 99.6636 13.5038H97.7938C97.6805 13.5038 97.5929 13.4677 97.5311 13.3955C97.4796 13.313 97.4642 13.2202 97.4848 13.117L98.6901 7.40744L96.3258 10.5485C96.2228 10.6619 96.1249 10.7496 96.0322 10.8115C95.9395 10.8734 95.8313 10.9044 95.7077 10.9044H94.9041C94.6878 10.9044 94.5384 10.7857 94.456 10.5485L93.3588 7.26818L92.1226 13.117C92.102 13.2305 92.0453 13.3233 91.9526 13.3955C91.8599 13.4677 91.762 13.5038 91.659 13.5038H89.8047Z" fill="#121217"/>
</g>
</g>
<defs>
<clipPath id="clip0_176_39438">
<rect width="16" height="16" fill="white" transform="translate(0.979126 0.0882568)"/>
</clipPath>
<clipPath id="clip1_176_39438">
<rect width="82.6667" height="11.1406" fill="white" transform="translate(19.6458 2.51794)"/>
</clipPath>
<clipPath id="clip2_176_39438">
<rect width="82.6667" height="11.1406" fill="white" transform="translate(19.6458 2.51794)"/>
</clipPath>
</defs>
</svg>
