<svg width="96" height="24" viewBox="0 0 96 24" fill="none" xmlns="http://www.w3.org/2000/svg">
<path d="M17.6148 21.313C17.4097 21.3253 17.2106 21.3365 17.0049 21.3365C16.7726 21.3365 16.5476 21.3189 16.3153 21.313L16.9916 19.8684L17.6148 21.313ZM18.364 22.9517C18.4835 22.9458 18.6693 22.917 18.8545 22.917C19.0403 22.917 19.2726 22.9458 19.3721 22.9517C19.0735 22.3819 18.6355 21.4947 18.384 20.9837C18.145 20.491 17.7475 19.6685 17.4296 18.8635C17.3566 18.8812 17.2896 18.8935 17.2172 18.8935C17.1376 18.8935 17.0712 18.8812 16.9982 18.8635C16.8396 19.3451 16.454 20.1088 15.7851 21.4371L15.0159 22.9517C15.1081 22.9399 15.2017 22.917 15.3139 22.917C15.42 22.917 15.5468 22.9399 15.6324 22.9517C15.7379 22.6171 15.9503 22.1291 16.162 21.6775C16.4275 21.6652 16.6929 21.654 16.9577 21.654C17.2431 21.654 17.5219 21.6652 17.8079 21.6775L18.0853 22.3002L18.364 22.9517Z" fill="#505967"/>
<path d="M19.9531 20.2794C19.9531 21.2836 19.9531 22.2532 19.8801 22.9517C20.0268 22.9464 20.212 22.917 20.3573 22.917C20.5099 22.917 20.6692 22.9464 20.8219 22.9517C20.7688 22.476 20.7555 21.8416 20.7555 20.9667C20.7555 20.3728 20.7555 19.3574 20.8285 18.9223C20.6692 18.94 20.504 18.9582 20.3573 18.9582C20.2584 18.9582 20.0122 18.9347 19.8868 18.9223C19.9531 19.4915 19.9531 19.9089 19.9531 20.2794Z" fill="#505967"/>
<path d="M23.8964 20.9549C24.5003 20.855 25.0505 20.5198 25.0505 19.8684C25.0505 19.6214 24.9443 19.3804 24.7458 19.2098C24.4611 18.9694 24.1353 18.9223 23.7046 18.9223C23.5519 18.9223 22.7827 18.9517 22.6108 18.9517C22.2724 18.9517 22.0998 18.9347 21.9478 18.9223C21.9936 19.6802 21.9936 19.7625 21.9936 20.5322C21.9936 21.6652 21.987 21.7945 21.9346 22.9517C22.0806 22.9346 22.2399 22.917 22.3912 22.917C22.5577 22.917 22.7031 22.9399 22.8358 22.9517C22.8358 22.7994 22.8093 22.0415 22.8093 21.871V21.0372H22.9686C23.3269 21.4835 23.7371 22.0003 24.0755 22.4648C24.1751 22.5995 24.3211 22.817 24.4206 22.9517C24.6197 22.9281 24.6994 22.917 24.9582 22.917C25.1965 22.917 25.3624 22.9346 25.5475 22.9517C25.1301 22.4883 24.9502 22.2826 24.4273 21.6305C24.3277 21.507 24.1817 21.313 24.0822 21.1901L23.8964 20.9549ZM22.8093 19.2398C22.9088 19.2334 23.1544 19.2098 23.2805 19.2098C23.4988 19.2098 23.7185 19.2398 23.8964 19.3574C24.1286 19.5097 24.1751 19.7214 24.1751 19.9683C24.1751 20.3493 23.9302 20.7791 23.2672 20.7791C23.0947 20.7791 22.9354 20.7668 22.8093 20.7609V19.2398Z" fill="#505967"/>
<path d="M27.3497 21.5776C27.0391 20.7609 26.6077 19.6155 26.402 18.9223C26.2361 18.9458 26.0907 18.9576 25.9381 18.9576C25.7788 18.9576 25.5531 18.9347 25.4204 18.9223C25.6925 19.5567 25.9241 20.12 26.104 20.5669C26.4093 21.3306 26.6077 21.8598 26.8466 22.5048L27.0119 22.9517C27.1048 22.9346 27.2103 22.917 27.284 22.917C27.357 22.917 27.4233 22.9281 27.5355 22.9517C27.6417 22.6465 27.7678 22.2708 27.8614 22.0297C28.1189 21.36 28.1527 21.266 28.4912 20.4322L28.6896 19.9448C28.7626 20.1324 28.8887 20.4322 28.961 20.6198C29.034 20.8021 29.3725 21.7011 29.4522 21.901C29.5583 22.165 29.5842 22.2408 29.8298 22.9517C29.8895 22.9458 30.0149 22.917 30.1152 22.917C30.2081 22.917 30.2804 22.9346 30.38 22.9517C30.6321 22.2532 30.6587 22.1826 31.0297 21.2424C31.3947 20.3258 31.6197 19.8037 32.0172 18.9223C31.9177 18.9458 31.8194 18.9576 31.7192 18.9576C31.5931 18.9576 31.4876 18.94 31.4146 18.9223C31.1757 19.6861 31.0569 20.0565 30.8644 20.561C30.5525 21.383 30.5127 21.477 30.3209 21.9239C30.1085 21.4188 29.9028 20.9073 29.7103 20.3911C29.6048 20.1088 29.1993 18.9347 29.1933 18.9223C29.1011 18.94 29.034 18.9576 28.9013 18.9576C28.7832 18.9576 28.6956 18.9347 28.61 18.9223C28.4109 19.6391 27.7081 21.3659 27.6417 21.5247L27.4758 21.9063L27.3497 21.5776Z" fill="#505967"/>
<path d="M34.0402 21.313C33.8345 21.3253 33.6361 21.3365 33.4297 21.3365C33.1981 21.3365 32.9724 21.3189 32.7408 21.313L33.4164 19.8684L34.0402 21.313ZM34.7888 22.9517C34.909 22.9458 35.0948 22.917 35.28 22.917C35.4658 22.917 35.6981 22.9458 35.7969 22.9517C35.499 22.3819 35.0609 21.4947 34.8088 20.9837C34.5698 20.491 34.1723 19.6685 33.8544 18.8635C33.7814 18.8812 33.715 18.8935 33.642 18.8935C33.5631 18.8935 33.496 18.8812 33.423 18.8635C33.2644 19.3451 32.8795 20.1088 32.2099 21.4371L31.4407 22.9517C31.5343 22.9399 31.6265 22.917 31.7393 22.917C31.8455 22.917 31.9709 22.9399 32.0579 22.9517C32.1634 22.6171 32.3764 22.1291 32.5881 21.6775C32.8529 21.6652 33.1184 21.654 33.3832 21.654C33.6686 21.654 33.9467 21.6652 34.232 21.6775L34.5108 22.3002L34.7888 22.9517Z" fill="#505967"/>
<path d="M37.572 21.3777C37.572 21.3253 37.6119 21.2607 37.6583 21.1895C37.937 20.7668 38.1952 20.3258 38.4939 19.9031C38.5927 19.7619 39.0772 19.0811 39.1774 18.9223C39.1038 18.9458 39.0308 18.9582 38.8987 18.9582C38.752 18.9582 38.6193 18.94 38.5131 18.9223C38.0359 19.8507 37.9297 20.05 37.367 20.9079C36.8035 20.033 36.5513 19.5691 36.2062 18.9223C36.0144 18.9517 35.8213 18.9582 35.6627 18.9582C35.5167 18.9582 35.364 18.9458 35.1191 18.9223C35.4636 19.4333 36.0277 20.2441 36.3655 20.7609L36.7564 21.36C36.7564 21.7246 36.7365 22.4936 36.7172 22.9517C36.8427 22.9399 37.0285 22.917 37.1606 22.917C37.3132 22.917 37.4665 22.9399 37.6192 22.9517C37.5919 22.4054 37.572 22.0885 37.572 21.5946V21.3777Z" fill="#505967"/>
<path d="M39.5594 22.0713C39.5269 22.353 39.5196 22.4294 39.4067 22.7346C39.6457 22.8404 40.077 23.0344 40.6465 23.0344C41.8603 23.0344 42.3308 22.3477 42.3308 21.748C42.3308 21.5833 42.2844 21.2364 42.0063 20.9724C41.8138 20.7843 41.6147 20.7202 41.1044 20.5438C40.5217 20.3439 40.1826 20.2263 40.1826 19.7977C40.1826 19.4514 40.4414 19.1633 40.965 19.1633C41.3825 19.1633 41.7349 19.3396 41.8337 19.6742H41.9267C41.9864 19.4514 41.9997 19.4043 42.1324 19.1162C41.8072 18.9875 41.5152 18.8757 41.0314 18.8757C39.8308 18.8757 39.4864 19.5337 39.4864 20.0499C39.4864 20.5379 39.6795 20.8378 40.3219 21.09C40.5071 21.1606 40.8197 21.2658 41.0048 21.337C41.1309 21.3834 41.549 21.5475 41.549 22.012C41.549 22.4353 41.2033 22.7469 40.6803 22.7469C40.2887 22.7469 39.9569 22.6587 39.6523 22.0713H39.5594Z" fill="#505967"/>
<path d="M2.72499 11.2154C2.72499 6.77512 5.41017 5.57626 7.43965 5.57626C10.7015 5.57626 12.1138 7.9734 12.1138 10.5287C12.1138 11.991 11.9147 13.3656 11.0991 14.4763C10.2834 15.5858 8.93156 16.2561 7.45889 16.2561C3.77955 16.2561 2.72499 13.154 2.72499 11.2154ZM12.6308 20.2919C13.2274 19.9215 14.1625 19.4634 14.8388 19.1988L10.3438 16.7311C13.108 15.868 14.8388 13.6825 14.8388 10.7045C14.8388 6.47585 11.1986 4.67785 7.4788 4.67785C3.46166 4.67785 0 6.65165 0 11.1278C0 12.0786 0.238918 13.8766 1.90935 15.3747C3.64018 16.9258 5.68891 17.1545 7.41974 17.1545C7.63808 17.1545 7.85643 17.1545 8.0761 17.1374L12.6308 20.2919Z" fill="#5C0632"/>
<path d="M24.1183 11.9909C23.5011 12.0268 22.9052 12.062 22.2873 12.062C21.5918 12.062 20.9155 12.0085 20.22 11.9909L22.2488 7.65583L24.1183 11.9909ZM26.3662 16.9075C26.7239 16.8898 27.2814 16.8016 27.8375 16.8016C28.3956 16.8016 29.0905 16.8898 29.3898 16.9075C28.4945 15.1983 27.1818 12.5371 26.4252 11.0037C25.7091 9.52379 24.5159 7.0561 23.5615 4.64191C23.3425 4.69542 23.1434 4.7307 22.9251 4.7307C22.6862 4.7307 22.4871 4.69542 22.2687 4.64191C21.7909 6.08772 20.6374 8.37844 18.6285 12.3607L16.3203 16.9075C16.5991 16.8728 16.8778 16.8016 17.2156 16.8016C17.5335 16.8016 17.9124 16.8728 18.1706 16.9075C18.4885 15.9026 19.1263 14.4404 19.7621 13.0833C20.5571 13.0487 21.3529 13.0134 22.1486 13.0134C23.0041 13.0134 23.8396 13.0487 24.6957 13.0833L25.5299 14.9519L26.3662 16.9075Z" fill="#5C0632"/>
<path d="M35.1925 7.97333C35.1925 7.30364 35.2118 6.63394 35.2317 5.99894C36.6042 5.99894 38.0171 6.01717 39.1904 6.12241C39.1307 5.84078 39.0909 5.68262 39.0909 5.48859C39.0909 5.34747 39.1307 5.11758 39.1904 4.81889C37.2811 4.9065 35.5303 4.92414 33.8792 4.92414C32.3474 4.92414 30.1394 4.9065 28.5679 4.81889C28.6283 5.03056 28.6674 5.25928 28.6674 5.47095C28.6674 5.68261 28.6283 5.91133 28.5679 6.12241C29.5833 6.03481 31.4926 5.99894 31.6712 5.99894H32.666C32.6859 6.68686 32.7058 7.30364 32.7058 7.95569L32.7257 12.8717C32.7257 14.2116 32.6069 15.5687 32.5266 16.9075C33.2427 16.8375 33.5414 16.8022 33.8792 16.8022C34.1181 16.8022 34.7545 16.8551 35.3319 16.9075C35.2715 16.4148 35.1925 15.8327 35.1925 14.4939V7.97333Z" fill="#5C0632"/>
<path d="M46.2642 11.9909C45.6476 12.0268 45.051 12.062 44.4344 12.062C43.7376 12.062 43.062 12.0085 42.3651 11.9909L44.3946 7.65583L46.2642 11.9909ZM48.512 16.9075C48.8697 16.8898 49.4272 16.8016 49.984 16.8016C50.5408 16.8016 51.237 16.8898 51.5356 16.9075C50.6403 15.1983 49.3276 12.5371 48.5717 11.0037C47.8556 9.52379 46.6617 7.0561 45.7073 4.64191C45.4883 4.69542 45.2892 4.7307 45.0709 4.7307C44.832 4.7307 44.6329 4.69542 44.4139 4.64191C43.9374 6.08772 42.7833 8.37844 40.7737 12.3607L38.4668 16.9075C38.7449 16.8728 39.0243 16.8016 39.3621 16.8016C39.68 16.8016 40.0576 16.8728 40.3171 16.9075C40.6356 15.9026 41.2714 14.4404 41.9079 13.0833C42.7029 13.0487 43.4987 13.0134 44.2951 13.0134C45.1505 13.0134 45.9861 13.0487 46.8409 13.0833L47.6764 14.9519L48.512 16.9075Z" fill="#5C0632"/>
<path d="M59.5467 10.9167C61.3565 10.6168 63.0077 9.61258 63.0077 7.65583C63.0077 6.91558 62.6891 6.19297 62.0918 5.68261C61.237 4.96 60.2621 4.81889 58.9693 4.81889C58.5114 4.81889 56.2045 4.9065 55.6868 4.9065C54.6721 4.9065 54.1551 4.85358 53.6985 4.81889C53.8372 7.09197 53.8372 7.33833 53.8372 9.64668C53.8372 13.0487 53.8173 13.4355 53.6587 16.9075C54.096 16.8551 54.5732 16.8016 55.0305 16.8016C55.5276 16.8016 55.9656 16.8728 56.3631 16.9075C56.3631 16.4489 56.2841 14.1764 56.2841 13.6648V11.1625H56.762C57.8358 12.5018 59.0695 14.0529 60.0836 15.4452C60.3816 15.8509 60.8189 16.503 61.1169 16.9075C61.7142 16.8375 61.9531 16.8016 62.7283 16.8016C63.4444 16.8016 63.9421 16.8551 64.4989 16.9075C63.2459 15.5158 62.7097 14.899 61.1375 12.9428C60.8388 12.5724 60.4015 11.9909 60.1028 11.6211L59.5467 10.9167ZM56.2841 5.77022C56.5821 5.75317 57.3181 5.68261 57.6964 5.68261C58.3528 5.68261 59.0085 5.77022 59.5467 6.12241C60.2422 6.58103 60.3816 7.21485 60.3816 7.95569C60.3816 9.10105 59.6456 10.3875 57.6566 10.3875C57.1389 10.3875 56.6618 10.3517 56.2841 10.3352V5.77022Z" fill="#5C0632"/>
<path d="M89.2811 10.9503C89.2811 11.0637 87.4806 11.1702 84.9102 11.2595C84.4563 11.0314 84.1118 10.8021 83.8596 10.6045C86.9768 10.7021 89.2811 10.8227 89.2811 10.9503Z" fill="#747F8A"/>
<path d="M87.4348 7.1056C87.4348 7.20026 85.9256 7.28904 83.7681 7.36548C84.0773 7.20555 84.3959 7.04445 84.7304 6.88276C86.3603 6.9492 87.4348 7.02622 87.4348 7.1056Z" fill="#747F8A"/>
<path d="M71.3585 15.3765C70.3597 15.3871 69.4837 15.3912 68.7994 15.3912C67.8146 15.3912 67.0168 15.1225 67.0168 14.7892C67.0168 14.4575 67.8146 14.1888 68.7994 14.1888C69.6715 14.1888 70.8528 14.1971 72.208 14.2124C71.6837 14.8826 71.4348 15.2854 71.4116 15.3107C71.3963 15.3301 71.3771 15.353 71.3585 15.3765Z" fill="#747F8A"/>
<path d="M71.8967 16.1818C72.2259 16.534 72.5418 16.8304 72.9645 17.1543C72.9645 17.1543 73.1238 17.356 73.6076 17.1831C74.1001 17.0056 74.5175 16.7639 74.9881 16.2048C76.3618 16.2254 77.8186 16.2524 79.2527 16.2812C79.3709 16.4335 79.6105 16.7486 79.9058 17.1373C75.9079 17.229 71.5689 17.2837 69.3463 17.2837C68.4205 17.2837 67.6692 17.0291 67.6692 16.7175C67.6692 16.4041 68.4205 16.1513 69.3463 16.1513C70.0232 16.1513 70.8952 16.1554 71.8934 16.1654C71.8927 16.1736 71.8967 16.1818 71.8967 16.1818Z" fill="#747F8A"/>
<path d="M70.3501 19.1356C69.5284 19.1356 68.8628 18.9116 68.8628 18.6353C68.8628 18.3583 69.5284 18.1337 70.3501 18.1337C72.5236 18.1337 76.9794 18.1925 80.7954 18.2884C80.9793 18.5218 81.1631 18.754 81.3376 18.9675C77.4088 19.0698 72.6264 19.1356 70.3501 19.1356Z" fill="#747F8A"/>
<path d="M83.0242 20.7417C79.8194 20.8663 74.309 20.9498 72.0194 20.9498C71.3749 20.9498 70.8513 20.7717 70.8513 20.5559C70.8513 20.3383 71.3749 20.1614 72.0194 20.1614C74.2094 20.1614 79.3528 20.2378 82.5988 20.3525C82.7455 20.4918 82.8888 20.6229 83.0242 20.7417Z" fill="#747F8A"/>
<path d="M74.6631 21.8067C76.5539 21.8067 82.3099 21.9331 82.3099 22.086C82.3099 22.2412 76.5533 22.3665 74.6631 22.3665C74.2948 22.3665 73.9968 22.2412 73.9968 22.086C73.9968 21.9331 74.2948 21.8067 74.6631 21.8067Z" fill="#747F8A"/>
<path d="M74.6841 11.4958C72.3042 11.5316 70.1719 11.5516 68.7994 11.5516C67.8152 11.5516 67.0168 11.2829 67.0168 10.9501C67.0168 10.6179 67.8152 10.3481 68.7994 10.3481C70.3936 10.3481 73.013 10.3751 75.8528 10.4227C75.4307 10.7926 75.0405 11.1524 74.6841 11.4958Z" fill="#747F8A"/>
<path d="M86.3572 8.80669C87.7516 8.87372 88.6289 8.94721 88.6289 9.02365C88.6289 9.10773 87.5671 9.18828 85.9238 9.26001C86.2749 9.026 86.3519 8.82198 86.3572 8.80669Z" fill="#747F8A"/>
<path d="M69.3467 9.58887C68.4202 9.58887 67.6689 9.33604 67.6689 9.02324C67.6689 8.71103 68.4202 8.45703 69.3467 8.45703C71.2467 8.45703 74.6931 8.49819 78.1502 8.56581C77.7261 8.88272 77.3239 9.19611 76.9443 9.50361C73.91 9.55771 71.0257 9.58887 69.3467 9.58887Z" fill="#747F8A"/>
<path d="M79.6783 7.47863C76.1437 7.55801 72.3143 7.60681 70.3499 7.60681C69.5283 7.60681 68.8633 7.3828 68.8633 7.10586C68.8633 6.82893 69.5283 6.60374 70.3499 6.60374C72.5181 6.60374 76.9633 6.66371 80.774 6.75896C80.5842 6.88126 80.3931 7.00356 80.1993 7.13174C80.0228 7.24815 79.8489 7.36281 79.6783 7.47863Z" fill="#747F8A"/>
<path d="M72.0191 5.57837C71.3747 5.57837 70.8511 5.40257 70.8511 5.18443C70.8511 4.96688 71.3747 4.78991 72.0191 4.78991C74.4501 4.78991 80.5133 4.88516 83.5927 5.02098C83.3963 5.13504 83.1998 5.25322 83.0014 5.37199C79.7919 5.49488 74.3041 5.57837 72.0191 5.57837Z" fill="#747F8A"/>
<path d="M68.6158 13.4821C67.6137 13.4821 66.8 13.2087 66.8 12.8694C66.8 12.5325 67.6137 12.2579 68.6158 12.2579C69.8721 12.2579 71.7523 12.2744 73.8787 12.3032C73.4791 12.7195 73.132 13.1052 72.8347 13.4509C71.1417 13.4709 69.6618 13.4821 68.6158 13.4821Z" fill="#747F8A"/>
<path d="M73.9971 3.65394C73.9971 3.49931 74.2951 3.37407 74.6634 3.37407C76.5535 3.37407 82.3101 3.49931 82.3101 3.65394C82.3101 3.8074 76.5542 3.93323 74.6634 3.93323C74.2951 3.93323 73.9971 3.8074 73.9971 3.65394Z" fill="#747F8A"/>
<path d="M89.4698 12.4166C89.483 12.7218 89.4811 13.0246 89.4638 13.3215C86.115 13.4391 82.9393 13.6178 82.9393 13.8189C82.9393 14.0165 86.044 14.1935 89.3543 14.3105C89.2959 14.6491 89.2209 14.9813 89.1293 15.3071C85.8661 15.4253 82.8378 15.5993 82.8378 15.7951C82.8378 15.9838 85.665 16.1537 88.7955 16.2719C88.6521 16.6259 88.4895 16.9698 88.307 17.2991C85.6185 17.4138 83.3966 17.5666 83.3966 17.7336C83.3966 17.8894 85.3378 18.0335 87.7847 18.1446C87.6474 18.3427 87.504 18.5368 87.354 18.7202C87.1947 18.9201 87.0215 19.1183 86.8384 19.3129C85.3086 19.4158 84.2587 19.5328 84.2587 19.658C84.2587 19.7656 85.0106 19.8662 86.1694 19.9561C85.5369 20.5106 84.7896 21.0286 83.909 21.4807C83.909 21.4807 82.8717 20.6893 82.0155 19.765C81.2523 18.9407 79.633 16.7676 79.252 16.2813C78.8704 15.7951 78.6196 15.6528 78.1736 15.7939C77.5756 15.9815 76.8808 16.0755 76.6671 16.0755C76.4534 16.0755 76.3359 16.002 76.6943 15.8762C77.0513 15.7486 78.4629 15.1583 79.1578 13.9383C79.9383 12.5642 79.252 10.6668 79.252 10.6668C78.9899 11.6811 78.3939 12.0597 78.3939 12.0597C78.5864 11.1178 78.3767 10.2641 77.8517 9.66495L77.559 10.8573C77.559 10.8573 77.3759 10.8491 76.9226 11.1866C76.47 11.5247 76.3452 12.0174 76.3452 12.0174C76.7016 12.1444 77.1303 11.8275 77.1303 11.8275C76.5828 13.6425 75.7977 15.1201 75.2249 15.9015C74.6529 16.6829 74.181 16.9775 73.6076 17.1839C73.1238 17.3555 72.9645 17.1539 72.9645 17.1539C72.5418 16.8305 72.2259 16.5342 71.8967 16.182C71.8967 16.182 71.8701 16.1408 71.9591 16.142C72.1947 16.1449 72.6141 15.788 72.7057 15.6399C72.8105 15.4699 72.7993 15.34 72.7468 15.3312C72.6951 15.3235 72.6055 15.4582 72.1509 15.7122C71.6989 15.9656 71.4912 15.7898 71.3405 15.6487C71.2237 15.5364 71.3385 15.3976 71.4115 15.3106C71.4806 15.233 73.8717 11.2824 80.1991 7.13199C88.4909 1.69272 93.7862 0.223981 94.0895 0.118148C94.29 0.0481796 94.6171 -0.0441306 94.6915 0.0234854C94.7738 0.099921 94.8142 0.161068 94.803 0.249851C94.7923 0.338046 94.7393 0.383321 94.3557 0.533252C91.1727 1.77562 87.4569 3.84644 85.3458 5.05177C82.7495 6.17243 80.2708 7.77288 80.1805 7.81109C79.9807 7.92104 80.1281 8.08097 80.2489 8.01394C84.633 5.43042 89.7731 3.67064 95.4534 2.22895C95.7248 2.16074 95.8734 2.16074 95.9186 2.21366C95.9697 2.27245 95.9916 2.33948 95.9995 2.41357C96.0068 2.50588 95.9206 2.55468 95.6876 2.63523C89.5853 4.64372 85.0876 6.50934 82.1947 8.23384C82.1947 8.23384 81.8954 8.39377 81.8914 8.57898C81.8901 8.64953 82.052 8.65776 82.052 8.65776C83.5001 8.6807 85.436 8.75595 86.3572 8.80358C86.3572 8.80358 86.2258 9.21692 85.3438 9.54971C84.6629 9.80724 84.0324 9.76608 83.4086 9.77078C83.2698 9.76843 83.1524 9.89249 83.2632 10.0248C83.319 10.0906 84.6463 11.9839 89.4698 12.4166Z" fill="#5C0632"/>
<path d="M45.2493 22.3172H44.4316C44.4316 22.3172 44.3215 21.8716 44.6175 21.7011C44.9148 21.5282 45.2493 21.3953 45.2493 21.3953V22.3172ZM49.129 20.6486C49.129 20.6486 48.632 20.9014 48.3174 21.1495C48.0048 21.3953 48.3818 21.4888 48.3818 21.4888V22.3172H46.0092V19.418C46.0092 19.418 45.1444 20.1224 45.0634 20.2159C44.9798 20.3158 45.2692 20.4064 45.2692 20.4064L45.2201 20.6809C45.2201 20.6809 44.8756 20.8391 44.4575 21.0896C44.0421 21.3371 43.7341 21.6528 43.7341 21.8716C43.7341 22.0909 43.6293 22.9517 43.6293 22.9517H49.129V20.6486ZM44.2173 19.5885C44.4881 19.5885 44.6792 19.4938 44.6792 19.3027C44.6792 19.1111 44.5524 18.9776 44.2173 18.9776C43.9193 18.9776 43.8397 19.0928 43.8397 19.3027C43.8397 19.5144 43.9432 19.5885 44.2173 19.5885ZM45.2287 19.5885C45.5021 19.5885 45.6873 19.4938 45.6873 19.3027C45.6873 19.1111 45.5619 18.9776 45.2287 18.9776C44.9294 18.9776 44.8511 19.0928 44.8511 19.3027C44.8511 19.5144 44.9539 19.5885 45.2287 19.5885ZM46.7611 23.201C46.4651 23.201 46.3835 23.3133 46.3835 23.5243C46.3835 23.7337 46.4883 23.8101 46.7611 23.8101C47.0319 23.8101 47.2237 23.7148 47.2237 23.5243C47.2237 23.3321 47.0989 23.201 46.7611 23.201ZM47.8123 23.201C47.5163 23.201 47.4354 23.3133 47.4354 23.5243C47.4354 23.7337 47.5429 23.8101 47.8123 23.8101C48.0871 23.8101 48.2756 23.7148 48.2756 23.5243C48.2756 23.3321 48.1515 23.201 47.8123 23.201ZM59.6633 19.5315C59.9361 19.5315 60.1272 19.4391 60.1272 19.2481C60.1272 19.0581 60.0011 18.9223 59.6633 18.9223C59.368 18.9223 59.2877 19.0376 59.2877 19.2481C59.2877 19.4586 59.3932 19.5315 59.6633 19.5315ZM60.7139 19.5315C60.9847 19.5315 61.1745 19.4391 61.1745 19.2481C61.1745 19.0581 61.0484 18.9223 60.7139 18.9223C60.4166 18.9223 60.3376 19.0376 60.3376 19.2481C60.3376 19.4586 60.4392 19.5315 60.7139 19.5315ZM63.6141 19.6102C63.4661 19.7237 63.5093 19.8595 63.6971 19.8407V22.9558H64.4762V19.0781C64.4762 19.0781 63.7595 19.4974 63.6141 19.6102ZM60.483 21.3571H59.9786C59.9786 21.1119 60.483 20.9761 60.483 20.9761V21.3571ZM57.1627 21.8716C57.1627 21.9845 57.1567 22.1685 57.1507 22.3172H52.7486V21.6317C52.8635 21.3677 53.0573 21.3371 53.3572 21.3371H56.5753C57.2702 21.3371 57.1627 21.6611 57.1627 21.8716ZM62.3107 19.8372V22.3172H61.2628V20.0653C61.2628 20.0653 61.0484 20.1382 60.7544 20.2535C60.4631 20.3705 59.4092 20.7497 59.4092 21.2624V21.8551H60.483V22.3172H57.9358C57.9378 22.2085 57.9405 22.0485 57.9405 21.8139C57.9405 21.0749 57.2297 20.6727 56.5972 20.6727H53.6526C53.1369 20.6727 52.888 20.7832 52.7486 20.9097V19.0005C52.7486 19.0005 52.2887 19.2869 51.9509 19.5144C51.6138 19.742 51.9509 19.8948 51.9509 19.8948V22.3172H50.986L50.9654 20.2382C50.9654 20.2382 50.2938 20.6727 50.1013 20.805C49.9135 20.9367 50.0177 21.0543 50.2281 21.0543C50.2281 21.0543 50.1896 22.5895 50.1896 22.9517C50.1896 23.3162 49.8491 23.7325 49.1343 23.5432C49.1343 23.5432 48.9074 23.582 49.0959 23.7337C49.2837 23.8848 49.5106 24 49.7648 24C50.0177 24 50.9442 23.8454 50.9442 22.9517H63.0872V19.0758C63.0872 19.0758 62.3724 19.4938 62.2251 19.6073C62.0771 19.7208 62.1202 19.8572 62.3107 19.8372Z" fill="#5C0632"/>
</svg>
