<svg width="156" height="25" viewBox="0 0 156 25" fill="none" xmlns="http://www.w3.org/2000/svg">
<g clip-path="url(#clip0_176_39392)">
<path d="M29.8184 11.7246H17.8184L5.81836 0.0882568H17.8184L29.8184 11.7246Z" fill="url(#paint0_linear_176_39392)"/>
<path d="M17.9826 12.075L11.9874 18.0701L17.9826 24.0653L23.9778 18.0701L17.9826 12.075Z" fill="#160F29"/>
<path d="M5.99538 0.0926514L0.000183105 6.08785L5.99538 12.083L11.9906 6.08785L5.99538 0.0926514Z" fill="#160F29"/>
<path d="M29.9691 0.0882568L23.9739 6.08345L29.9691 12.0787L35.9643 6.08345L29.9691 0.0882568Z" fill="#160F29"/>
<path d="M42.182 5.90649H56.7275V8.99916H51.1754V24.0883H47.7387V8.99916H42.1866V5.90649H42.182Z" fill="#160F29"/>
<path d="M61.9469 10.9985C62.7414 10.5282 63.6697 10.2884 64.7275 10.27V13.4929C63.3094 13.4099 62.1778 13.7372 61.3326 14.4795C60.4873 15.2219 60.0623 16.2224 60.0623 17.4857V24.0882H56.7275V10.3945H60.0623V13.0318C60.5243 12.1465 61.1524 11.4688 61.9469 10.9985Z" fill="#160F29"/>
<path d="M74.5827 23.9377V22.2907C74.1078 22.8838 73.5005 23.3309 72.7573 23.632C72.013 23.9377 71.1596 24.0882 70.1966 24.0882C69.2336 24.0882 68.4167 23.9057 67.7002 23.5453C66.9837 23.1803 66.4314 22.6785 66.0389 22.0398C65.651 21.3966 65.4547 20.6804 65.4547 19.8866C65.4547 18.6184 65.902 17.6284 66.7965 16.9122C67.6911 16.196 68.9598 15.8265 70.5982 15.8128H74.5507V15.4569C74.5507 14.6632 74.2903 14.0473 73.7653 13.6094C73.2409 13.1714 72.4831 12.9524 71.4837 12.9524C70.2012 12.9524 68.8594 13.3767 67.4537 14.2206L66.2625 11.9397C67.3259 11.3466 68.2935 10.9224 69.1652 10.6623C70.0369 10.4023 71.0546 10.27 72.2184 10.27C73.9754 10.27 75.3398 10.6942 76.3078 11.5382C77.2794 12.3822 77.7725 13.5638 77.7907 15.0829L77.8183 23.9467H74.5733L74.5827 23.9377ZM73.414 20.8857C74.0896 20.4386 74.4685 19.8866 74.5551 19.2251V18.0117H71.1368C70.2605 18.0117 69.6125 18.144 69.1971 18.404C68.7818 18.664 68.5765 19.0929 68.5765 19.6814C68.5765 20.2698 68.7909 20.7123 69.2245 21.0499C69.6535 21.3875 70.2422 21.5563 70.9861 21.5563C71.9309 21.5563 72.7434 21.3328 73.4191 20.8857H73.414Z" fill="#160F29"/>
<path d="M92.4111 11.6897C93.3493 12.6345 93.8184 13.9204 93.8184 15.5382V24.0835H90.3384V16.5107C90.3384 15.5567 90.0562 14.8008 89.4867 14.2477C88.9216 13.6946 88.1515 13.418 87.1747 13.418C86.0213 13.4365 85.1165 13.8098 84.4518 14.5427C83.7864 15.2755 83.4562 16.2158 83.4562 17.3589V24.0882H80.0002V10.399H83.4562V12.9571C84.4278 11.2011 86.1318 10.3069 88.558 10.27C90.1856 10.27 91.4729 10.7448 92.4111 11.6897Z" fill="#160F29"/>
<path d="M102.783 13.175C102.083 12.9561 101.442 12.8467 100.85 12.8467C100.295 12.8467 99.854 12.9425 99.5267 13.1385C99.1987 13.3346 99.0351 13.631 99.0351 14.0369C99.0351 14.4428 99.2402 14.7849 99.654 15.0129C100.068 15.2409 100.718 15.4826 101.61 15.7334C102.551 16.0207 103.325 16.3035 103.935 16.5817C104.54 16.8598 105.067 17.2749 105.513 17.8221C105.959 18.3694 106.182 19.0899 106.182 19.9883C106.182 21.3063 105.677 22.3187 104.667 23.0256C103.657 23.7325 102.388 24.0882 100.855 24.0882C99.8133 24.0882 98.7943 23.9241 97.798 23.5957C96.806 23.2673 95.9645 22.7976 95.2729 22.191L96.4103 19.888C97.0154 20.4125 97.7383 20.8229 98.5805 21.1147C99.422 21.4112 100.223 21.5571 100.978 21.5571C101.583 21.5571 102.069 21.4523 102.429 21.2425C102.793 21.0327 102.97 20.7134 102.97 20.2939C102.97 19.8196 102.761 19.4684 102.338 19.2313C101.915 18.9942 101.237 18.7342 100.29 18.4469C99.3805 18.1779 98.6394 17.9134 98.0663 17.6489C97.4933 17.3889 96.9973 16.9921 96.5783 16.4585C96.1558 15.925 95.9463 15.2318 95.9463 14.3699C95.9463 13.0382 96.4285 12.0212 97.3973 11.3189C98.3667 10.6166 99.5813 10.27 101.046 10.27C101.938 10.27 102.815 10.3977 103.685 10.6485C104.554 10.9039 105.322 11.255 105.996 11.7111L104.808 14.0917C104.153 13.7041 103.475 13.3985 102.775 13.1795L102.783 13.175Z" fill="#160F29"/>
<path d="M113.434 7.8429C113.092 8.14079 112.92 8.58537 112.92 9.1813V10.6238H116.458V13.1161H112.92V24.0883H109.487V13.1161H107.637V10.6238H109.487V9.2853C109.487 8.25432 109.715 7.37468 110.171 6.64633C110.628 5.91801 111.242 5.37414 112.007 5.00524C112.773 4.63635 113.605 4.4519 114.504 4.4519C115.403 4.4519 116.245 4.65527 117.091 5.05726L116.482 7.81446C115.778 7.53548 115.198 7.39359 114.742 7.39359C114.214 7.39359 113.776 7.54021 113.434 7.83817V7.8429Z" fill="#160F29"/>
<path d="M128.586 12.1323C129.652 13.3677 130.182 15.1018 130.182 17.3393C130.182 17.7785 130.173 18.1079 130.155 18.3275H120.381C120.594 19.293 121.036 20.0526 121.704 20.6016C122.373 21.1507 123.193 21.4252 124.165 21.4252C124.842 21.4252 125.488 21.2925 126.108 21.0317C126.727 20.7709 127.267 20.3911 127.73 19.9016L129.464 21.7547C128.805 22.5005 128.002 23.077 127.053 23.4796C126.103 23.8869 125.052 24.0882 123.898 24.0882C122.547 24.0882 121.352 23.7999 120.322 23.2234C119.293 22.6469 118.495 21.8416 117.933 20.7984C117.372 19.7551 117.091 18.5609 117.091 17.2065C117.091 15.8522 117.376 14.6488 117.947 13.601C118.517 12.5532 119.311 11.7342 120.336 11.1485C121.357 10.5628 122.52 10.27 123.826 10.27C125.938 10.27 127.525 10.8877 128.586 12.1231V12.1323ZM127.236 16.1222C127.205 15.1247 126.879 14.3285 126.273 13.7337C125.662 13.1435 124.855 12.846 123.848 12.846C122.908 12.846 122.119 13.1389 121.486 13.7246C120.853 14.3102 120.461 15.1064 120.309 16.1267H127.236V16.1222Z" fill="#160F29"/>
<path d="M137.583 10.9985C138.378 10.5282 139.306 10.2884 140.364 10.27V13.4929C138.946 13.4099 137.814 13.7372 136.969 14.4795C136.124 15.2219 135.698 16.2224 135.698 17.4857V24.0882H132.364V10.3945H135.698V13.0318C136.161 12.1465 136.789 11.4688 137.583 10.9985Z" fill="#160F29"/>
<path d="M152.166 11.1348C153.258 11.7113 154.108 12.5211 154.722 13.5598C155.33 14.603 155.637 15.7973 155.637 17.1516C155.637 18.506 155.33 19.7323 154.722 20.7846C154.113 21.8324 153.258 22.6469 152.166 23.2234C151.074 23.7999 149.815 24.0882 148.389 24.0882C146.963 24.0882 145.671 23.7999 144.57 23.2234C143.47 22.6469 142.615 21.837 142.006 20.7846C141.398 19.7369 141.091 18.5243 141.091 17.1516C141.091 15.779 141.398 14.5985 142.006 13.5598C142.615 12.5166 143.47 11.7113 144.57 11.1348C145.671 10.5582 146.945 10.27 148.389 10.27C149.834 10.27 151.074 10.5582 152.166 11.1348ZM145.551 14.2324C144.831 14.9966 144.469 15.9849 144.469 17.2019C144.469 18.4191 144.831 19.412 145.551 20.1715C146.271 20.9356 147.218 21.3154 148.389 21.3154C149.56 21.3154 150.452 20.9356 151.177 20.1715C151.897 19.4074 152.259 18.4191 152.259 17.2019C152.259 15.9849 151.897 14.992 151.177 14.2324C150.457 13.4683 149.527 13.0886 148.389 13.0886C147.251 13.0886 146.276 13.4683 145.551 14.2324Z" fill="#160F29"/>
</g>
<defs>
<linearGradient id="paint0_linear_176_39392" x1="3.08144" y1="-8.77327" x2="47.2954" y2="38.0807" gradientUnits="userSpaceOnUse">
<stop stop-color="#ABFEF4"/>
<stop offset="0.45" stop-color="#4D4DFF"/>
<stop offset="1" stop-color="#160F29"/>
</linearGradient>
<clipPath id="clip0_176_39392">
<rect width="155.636" height="24" fill="white" transform="translate(0 0.0882568)"/>
</clipPath>
</defs>
</svg>
