<svg width="53" height="25" viewBox="0 0 53 25" fill="none" xmlns="http://www.w3.org/2000/svg">
<path fill-rule="evenodd" clip-rule="evenodd" d="M3.29911 3.15491C2.29111 3.15491 1.28311 3.45491 0.331106 4.08824V4.72157C0.387106 4.68824 0.480439 4.62157 0.629772 4.55491C0.704439 4.52157 0.779106 4.48824 0.853772 4.48824C0.872439 4.48824 0.909772 4.48824 0.928439 4.45491C1.86177 4.22157 2.66444 4.55491 3.14977 5.55491C4.21377 7.72157 3.33644 12.1549 1.18977 15.4882C0.909772 15.9216 0.629772 16.2882 0.349772 16.6549L0.331106 16.6882V17.7549C0.424439 17.6549 0.499106 17.5549 0.592439 17.4216C0.704439 17.7549 1.46977 19.9549 1.48844 19.9882C1.54444 19.9216 1.71244 19.7216 1.91777 19.4882C2.14177 19.1882 2.42177 18.8549 2.68311 18.4549C2.70177 18.4216 2.70177 18.4216 2.72044 18.3882L1.54444 15.9549C1.65644 15.7549 2.06711 15.0216 2.38444 14.3549C2.45911 14.4549 3.44844 15.8216 3.84044 16.4549C4.15777 15.8549 4.43777 15.2216 4.68044 14.5882C4.13911 13.9549 3.01911 12.7882 3.01911 12.7882C3.20577 12.2549 3.37377 11.7216 3.50444 11.1882C3.50444 11.1882 4.81111 12.1216 5.35244 12.5882C5.50177 12.0882 5.61377 11.5549 5.70711 11.0549C5.72577 10.9882 5.72577 10.8882 5.74444 10.8216C5.07244 10.3549 3.89644 9.82157 3.78444 9.78824C3.85911 9.32157 3.89644 8.88824 3.91511 8.45491C4.88577 8.62157 5.76311 9.02157 5.93111 9.08824C5.94977 8.58824 5.94977 8.12157 5.91244 7.68824C4.84844 7.35491 3.98977 7.35491 3.87777 7.35491C3.85911 7.02157 3.80311 6.68824 3.74711 6.38824C3.74711 6.38824 4.69911 6.25491 5.68844 6.45491C5.63244 6.25491 5.57644 6.05491 5.50177 5.88824C5.44577 5.75491 5.33377 5.52157 5.33377 5.52157C5.33377 5.52157 4.49377 5.42157 3.52311 5.65491C3.42977 5.42157 3.31777 5.22157 3.22444 5.05491C3.24311 5.05491 3.98977 4.75491 4.86711 4.75491C4.62444 4.45491 4.36311 4.25491 4.36311 4.25491C3.67244 4.28824 2.94444 4.62157 2.88844 4.65491C2.68311 4.45491 2.53377 4.35491 2.51511 4.35491C2.57111 4.32157 3.09377 4.02157 3.48577 3.95491C2.96311 3.82157 2.23511 4.12157 2.14177 4.15491C2.02977 4.12157 1.86177 4.08824 1.74977 4.05491C1.74977 4.05491 2.14177 3.85491 2.66444 3.72157C3.13111 3.58824 4.71777 3.25491 5.74444 5.68824C6.69644 7.98824 6.36044 11.5882 5.05377 15.0216C4.71777 15.9549 4.30711 16.8549 3.82177 17.7216C3.42977 18.4549 3.01911 19.0882 2.62711 19.6549C2.02977 20.5216 1.37644 21.2549 0.723106 21.8549C0.592439 21.9882 0.443106 22.1216 0.312439 22.2216V23.3216C1.43244 22.3882 2.08577 21.4882 2.08577 21.4882L3.01911 23.8549C3.01911 23.8549 3.74711 23.0549 4.47511 21.9549L3.35511 19.6882C3.78444 19.0216 4.17644 18.2882 4.53111 17.5549C4.53111 17.5549 5.68844 19.3882 5.81911 19.6216C6.19244 18.8882 6.52844 18.0882 6.82711 17.2882C6.22977 16.4216 5.42711 15.4549 5.42711 15.4549C5.42711 15.4549 5.89377 14.0882 6.09911 13.2549C6.09911 13.2549 6.86444 13.9882 7.59244 14.8549C7.77911 14.1549 7.90977 13.4216 8.02177 12.6549C7.53644 12.1549 6.49111 11.2882 6.49111 11.2882C6.58444 10.6549 6.64044 10.0216 6.65911 9.42157C6.65911 9.42157 7.42444 9.85491 8.20844 10.5549C8.22711 9.95491 8.20844 9.38824 8.13377 8.82157C7.48044 8.25491 6.60311 7.88824 6.60311 7.88824C6.56577 7.42157 6.47244 6.95491 6.37911 6.55491C6.37911 6.55491 7.18177 6.82157 7.87244 7.32157C7.70444 6.62157 7.48044 6.22157 7.48044 6.22157C7.03244 5.78824 6.00577 5.45491 6.00577 5.45491C5.89377 5.18824 5.76311 4.95491 5.63244 4.75491C5.94977 4.82157 6.45377 5.05491 6.45377 5.05491C5.89377 4.55491 5.27777 4.28824 5.27777 4.28824C5.27777 4.28824 5.14711 4.15491 4.99777 3.98824C4.99777 3.98824 6.54711 4.55491 7.38711 5.68824C7.46177 5.78824 7.53644 5.92157 7.61111 6.02157C7.70444 6.15491 7.76044 6.32157 7.83511 6.48824C9.51511 10.5882 8.05911 18.4549 3.98977 23.9882H5.50177C5.42711 23.8216 5.22177 23.4216 5.18444 23.3882C5.66977 22.5882 6.11777 21.7549 6.52844 20.8549L7.53644 22.6549C7.92844 21.8549 8.30177 20.9882 8.61911 20.0882C8.61911 20.0882 8.09644 19.1882 7.51777 18.2882C7.96577 16.9882 8.24577 15.6882 8.24577 15.6882C8.28311 15.7549 8.84311 16.4882 9.40311 17.4216C9.68311 16.3549 9.85111 14.9882 9.85111 14.9882C9.27244 14.0216 8.65644 13.3549 8.65644 13.3549C8.74977 12.6216 8.80577 11.8882 8.82444 11.1549C8.82444 11.1549 9.45911 11.8216 10.0191 12.6882C10.0191 12.0549 10.0004 11.3882 9.92577 10.7882C9.38444 9.95491 8.76844 9.38824 8.76844 9.38824C8.76844 9.38824 8.71244 8.68824 8.50711 7.82157C8.54444 7.85491 8.84311 8.12157 9.34711 8.78824C8.95511 7.85491 8.26444 6.95491 8.26444 6.95491C8.18977 6.75491 8.11511 6.55491 8.04044 6.35491C8.60044 7.05491 9.12311 7.85491 9.57111 8.75491C9.73911 9.12157 9.88844 9.62157 10.0191 10.1549C10.0564 10.3216 10.0751 10.4549 10.1124 10.6216C10.4858 12.8882 10.2618 15.4216 9.83244 17.4882C9.34711 19.8882 8.52577 22.1216 7.57377 24.0216H9.36577C9.53377 23.5882 9.70177 23.1549 9.85111 22.6882C9.73911 22.3549 9.17911 21.2216 9.17911 21.2216C9.47777 20.3549 9.75777 19.3882 9.96311 18.4549C9.96311 18.4549 10.3364 19.1882 10.6164 19.9216C10.8964 18.7216 11.0271 17.4549 11.0271 17.4549C10.8404 16.8882 10.4111 15.9882 10.4111 15.9882C10.5044 15.2216 10.5604 14.4549 10.5604 13.6549C10.7844 14.1216 11.0644 14.8549 11.0644 14.8549C11.0084 13.4216 10.5978 12.1216 10.5044 11.8549C10.5044 11.8216 10.5044 11.7882 10.5044 11.7549C10.4484 11.2549 10.3551 10.7216 10.2991 10.4216C10.7658 11.6549 11.0644 13.0216 11.0644 13.0216C11.2511 13.9216 11.3631 15.0216 11.3631 16.2216C11.3631 16.8549 11.2884 20.2216 9.85111 24.0216H10.2991C10.5604 23.1216 10.8591 22.0216 11.0644 21.0882C11.0644 21.1216 11.1764 21.5882 11.2511 22.0549C11.4004 21.0882 11.5124 20.0882 11.5684 19.0549C11.5498 18.9216 11.5124 18.7216 11.4938 18.5882C11.4938 18.5882 11.5871 17.7216 11.6244 16.7216C11.6804 17.4216 11.6991 18.0882 11.6991 18.8216C11.6991 20.0549 11.6244 21.2216 11.4564 22.3882C11.3818 22.9549 11.2698 23.5216 11.1764 24.0549H11.5684C11.8858 22.3882 12.0538 20.6549 12.0538 18.8882C12.0911 10.2216 8.15244 3.15491 3.29911 3.15491ZM0.331106 13.5216V15.6216C0.536439 15.3882 0.741772 15.1216 0.947106 14.8216L0.331106 13.5216ZM0.611106 4.85491C0.517772 4.95491 0.424439 5.08824 0.331106 5.22157V5.72157C0.573772 5.38824 0.891106 4.98824 1.15244 4.72157C0.984439 4.75491 0.797772 4.78824 0.611106 4.85491ZM1.39511 13.0882C1.07777 12.6882 0.331106 11.7549 0.331106 11.7549V10.6216C0.872439 9.22157 0.947106 7.65491 0.480439 6.85491C0.443106 6.78824 0.387106 6.72157 0.331106 6.65491V6.08824C0.331106 6.08824 1.02177 5.12157 1.56311 4.68824C1.69377 4.72157 1.82444 4.72157 1.93644 4.78824C1.11511 5.38824 0.517772 6.15491 0.480439 6.22157C0.555106 6.32157 0.648439 6.42157 0.648439 6.42157C0.667106 6.42157 1.45111 5.52157 2.30977 4.98824C2.42177 5.08824 2.53377 5.18824 2.64577 5.35491C1.69377 5.82157 0.797772 6.68824 0.797772 6.68824C0.853772 6.78824 0.891106 6.92157 0.928439 7.02157H0.947106C1.91777 6.32157 2.94444 5.92157 2.94444 5.92157C3.01911 6.12157 3.09377 6.32157 3.14977 6.58824C3.14977 6.58824 2.23511 6.78824 1.04044 7.45491C1.07777 7.75491 1.09644 7.95491 1.09644 7.95491C1.09644 7.95491 2.21644 7.52157 3.24311 7.45491C3.26177 7.75491 3.24311 8.08824 3.22444 8.42157C2.60844 8.35491 1.15244 8.48824 1.09644 8.52157C1.09644 8.52157 1.09644 8.88824 1.04044 9.25491C1.04044 9.25491 2.10444 9.32157 3.07511 9.62157C3.00044 10.0216 2.90711 10.4549 2.79511 10.8549C2.16044 10.5216 1.17111 10.0882 0.909772 9.98824C0.835106 10.2882 0.760439 10.5882 0.648439 10.8549C0.648439 10.8549 1.84311 11.7882 2.29111 12.2549C2.08577 12.7882 1.69377 13.5216 1.69377 13.5216C1.61911 13.3882 1.50711 13.2216 1.39511 13.0882Z" fill="white"/>
<path fill-rule="evenodd" clip-rule="evenodd" d="M3.29911 3.15492C8.13377 3.15492 12.0724 10.2216 12.0724 18.8883C12.0724 20.6549 11.9044 22.3883 11.5871 24.0549H13.7338V0.0882568H0.331106V4.08826C1.28311 3.45492 2.29111 3.15492 3.29911 3.15492ZM0.331106 10.6216C0.872439 9.22159 0.947106 7.65492 0.480439 6.85492C0.443106 6.78826 0.387106 6.72159 0.331106 6.65492V10.6216ZM3.13111 5.55492C2.64577 4.55492 1.84311 4.22159 0.909772 4.45492C0.891106 4.45492 0.853772 4.45492 0.835106 4.48826C0.760439 4.52159 0.685772 4.52159 0.611106 4.55492C0.461772 4.62159 0.368439 4.68826 0.312439 4.72159V5.22159C0.405772 5.08826 0.499106 4.95492 0.592439 4.85492C0.779106 4.78826 0.965772 4.75492 1.13377 4.72159C0.872439 4.98826 0.555106 5.35492 0.312439 5.72159V6.08826C0.312439 6.08826 1.00311 5.12159 1.54444 4.68826C1.67511 4.72159 1.80577 4.72159 1.91777 4.78826C1.09644 5.38826 0.499106 6.15492 0.461772 6.22159C0.536439 6.32159 0.629772 6.42159 0.629772 6.42159C0.648439 6.42159 1.43244 5.52159 2.29111 4.98826C2.40311 5.08826 2.51511 5.18826 2.62711 5.35492C1.67511 5.82159 0.779106 6.68826 0.779106 6.68826C0.835106 6.78826 0.872439 6.92159 0.909772 7.02159H0.928439C1.91777 6.32159 2.94444 5.92159 2.94444 5.92159C3.01911 6.12159 3.09377 6.32159 3.14977 6.58826C3.14977 6.58826 2.23511 6.78826 1.04044 7.45492C1.07777 7.75492 1.09644 7.95492 1.09644 7.95492C1.09644 7.95492 2.21644 7.52159 3.24311 7.45492C3.26177 7.75492 3.24311 8.08826 3.22444 8.42159C2.60844 8.35492 1.15244 8.48826 1.09644 8.52159C1.09644 8.52159 1.09644 8.88826 1.04044 9.25492C1.04044 9.25492 2.10444 9.32159 3.07511 9.62159C3.00044 10.0216 2.90711 10.4549 2.79511 10.8549C2.16044 10.5216 1.17111 10.0883 0.909772 9.98826C0.835106 10.2883 0.760439 10.5883 0.648439 10.8549C0.648439 10.8549 1.84311 11.7883 2.29111 12.2549C2.08577 12.7883 1.69377 13.5216 1.69377 13.5216C1.58177 13.3549 1.46977 13.2216 1.37644 13.0883C1.07777 12.6883 0.331106 11.7549 0.331106 11.7549V13.5216L0.947106 14.8216C0.741772 15.1216 0.536439 15.3883 0.331106 15.6216V16.6883L0.349772 16.6549C0.629772 16.3216 0.909772 15.9216 1.18977 15.4883C3.31777 12.1549 4.19511 7.72159 3.13111 5.55492ZM5.76311 5.75492C4.75511 3.32159 3.16844 3.65492 2.68311 3.78826C2.16044 3.92159 1.76844 4.12159 1.76844 4.12159C1.88044 4.15492 2.04844 4.18826 2.16044 4.22159C2.25377 4.18826 2.98177 3.88826 3.50444 4.02159C3.11244 4.08826 2.58977 4.38826 2.53377 4.42159C2.55244 4.42159 2.70177 4.52159 2.90711 4.72159C2.96311 4.68826 3.69111 4.35492 4.38177 4.32159C4.38177 4.32159 4.64311 4.52159 4.88577 4.82159C3.98977 4.82159 3.26177 5.12159 3.24311 5.12159C3.35511 5.28826 3.44844 5.48826 3.54177 5.72159C4.51244 5.45492 5.35244 5.58826 5.35244 5.58826C5.35244 5.58826 5.46444 5.82159 5.52044 5.95492C5.57644 6.12159 5.65111 6.32159 5.70711 6.52159C4.71777 6.32159 3.76577 6.45492 3.76577 6.45492C3.82177 6.75492 3.85911 7.08826 3.87777 7.42159C3.98977 7.42159 4.82977 7.42159 5.91244 7.75492C5.94977 8.18826 5.94977 8.65492 5.93111 9.15492C5.74444 9.05492 4.86711 8.68826 3.91511 8.52159C3.89644 8.95492 3.85911 9.38826 3.78444 9.85492C3.89644 9.88826 5.07244 10.4216 5.74444 10.8883C5.72577 10.9549 5.72577 11.0216 5.70711 11.1216C5.61377 11.6216 5.50177 12.1549 5.35244 12.6549C4.81111 12.1883 3.50444 11.2549 3.50444 11.2549C3.37377 11.7883 3.20577 12.3216 3.01911 12.8549C3.01911 12.8549 4.13911 13.9883 4.68044 14.6549C4.43777 15.2883 4.13911 15.9216 3.84044 16.5216C3.44844 15.8883 2.45911 14.5216 2.38444 14.4216C2.06711 15.0883 1.67511 15.8216 1.54444 16.0216L2.72044 18.4549C2.70177 18.4883 2.70177 18.4883 2.68311 18.5216C2.42177 18.8883 2.16044 19.2549 1.91777 19.5549C1.71244 19.7883 1.54444 19.9883 1.48844 20.0549C1.46977 19.9549 0.704439 17.7549 0.592439 17.3883C0.499106 17.4883 0.424439 17.6216 0.331106 17.7216V22.2549C0.461772 22.1216 0.611106 22.0216 0.741772 21.8883C1.41377 21.2883 2.04844 20.5549 2.64577 19.6883C3.03777 19.1549 3.42977 18.4883 3.84044 17.7549C4.30711 16.8883 4.71777 15.9883 5.07244 15.0549C6.37911 11.6216 6.73377 8.05492 5.76311 5.75492ZM7.83511 6.55492C7.76044 6.38826 7.70444 6.22159 7.61111 6.08826C7.53644 5.95492 7.46177 5.85492 7.38711 5.75492C6.54711 4.62159 4.99777 4.05492 4.99777 4.05492C5.14711 4.18826 5.25911 4.35492 5.27777 4.35492C5.27777 4.35492 5.91244 4.62159 6.45377 5.12159C6.45377 5.12159 5.94977 4.92159 5.63244 4.82159C5.76311 5.02159 5.89377 5.28826 6.00577 5.52159C6.00577 5.52159 7.03244 5.85492 7.48044 6.28826C7.48044 6.28826 7.70444 6.68826 7.87244 7.38826C7.16311 6.88826 6.37911 6.62159 6.37911 6.62159C6.49111 7.05492 6.56577 7.48826 6.60311 7.95492C6.60311 7.95492 7.48044 8.32159 8.13377 8.88826C8.18977 9.45492 8.20844 10.0216 8.20844 10.6216C7.42444 9.92159 6.65911 9.48826 6.65911 9.48826C6.64044 10.0883 6.58444 10.7216 6.49111 11.3549C6.49111 11.3549 7.55511 12.1883 8.02177 12.7216C7.90977 13.4883 7.76044 14.2216 7.59244 14.9216C6.86444 14.0883 6.09911 13.3216 6.09911 13.3216C5.91244 14.1549 5.42711 15.5216 5.42711 15.5216C5.44577 15.5216 6.22977 16.5216 6.82711 17.3549C6.52844 18.1549 6.19244 18.9549 5.81911 19.6883C5.68844 19.4549 4.53111 17.6216 4.53111 17.6216C4.17644 18.3549 3.78444 19.0549 3.35511 19.7549L4.47511 22.0216C3.74711 23.0883 3.01911 23.9216 3.01911 23.9216L2.08577 21.5549C2.08577 21.5549 1.43244 22.4549 0.312439 23.3883V24.0883H3.97111C8.05911 18.5549 9.51511 10.6549 7.83511 6.55492ZM7.57377 24.0549C8.52577 22.1549 9.34711 19.9216 9.83244 17.5216C10.2618 15.4549 10.4858 12.8883 10.1124 10.6549C10.0938 10.5216 10.0564 10.3549 10.0191 10.1883C9.90711 9.62159 9.73911 9.15492 9.57111 8.78826C9.12311 7.88826 8.60044 7.05492 8.04044 6.38826C8.11511 6.58826 8.20844 6.78826 8.26444 6.98826C8.26444 6.98826 8.95511 7.88826 9.34711 8.82159C8.84311 8.15492 8.54444 7.92159 8.50711 7.85492C8.69377 8.72159 8.76844 9.42159 8.76844 9.42159C8.76844 9.42159 9.38444 9.98826 9.92577 10.8216C10.0004 11.4549 10.0378 12.0883 10.0191 12.7216C9.45911 11.8549 8.82444 11.1883 8.82444 11.1883C8.80577 11.9216 8.74977 12.6549 8.65644 13.3883C8.65644 13.3883 9.25377 14.0549 9.85111 15.0216C9.85111 15.0216 9.68311 16.3883 9.40311 17.4549C8.84311 16.5216 8.28311 15.7883 8.24577 15.7216C8.24577 15.7216 7.96577 17.0216 7.51777 18.3216C8.07777 19.1883 8.61911 20.1216 8.61911 20.1216C8.30177 21.0216 7.92844 21.8883 7.53644 22.6883L6.52844 20.8883C6.11777 21.7883 5.66977 22.6549 5.18444 23.4216C5.20311 23.4549 5.40844 23.8549 5.50177 24.0216H7.57377V24.0549ZM9.38444 24.0549H9.88844C11.3258 20.2549 11.4004 16.9216 11.4004 16.2549C11.4004 15.0549 11.2884 13.9216 11.1018 13.0549C11.1018 13.0549 10.8031 11.6883 10.3364 10.4549C10.3924 10.7216 10.4858 11.2883 10.5418 11.7883C10.5418 11.8216 10.5418 11.8549 10.5418 11.8883C10.6351 12.1549 11.0458 13.4549 11.1018 14.8883C11.1018 14.8883 10.8031 14.1549 10.5978 13.6883C10.5978 14.4883 10.5418 15.2549 10.4484 16.0216C10.4484 16.0216 10.8778 16.9216 11.0644 17.4883C11.0644 17.4883 10.9338 18.7549 10.6538 19.9549C10.3738 19.2216 10.0004 18.4883 10.0004 18.4883C9.79511 19.4216 9.51511 20.3883 9.21644 21.2549C9.21644 21.2549 9.75777 22.3883 9.88844 22.7216C9.70177 23.2216 9.55244 23.6216 9.38444 24.0549ZM10.3364 24.0549C10.5978 23.1549 10.8964 22.0549 11.1018 21.1216C11.1018 21.1549 11.2138 21.6216 11.2884 22.0883C11.4378 21.1216 11.5498 20.1216 11.6058 19.0883C11.5871 18.9549 11.5498 18.7549 11.5311 18.6216C11.5311 18.6216 11.6244 17.7549 11.6618 16.7549C11.7178 17.4549 11.7364 18.1216 11.7364 18.8549C11.7364 20.0883 11.6618 21.2549 11.4938 22.4216C11.4191 22.9883 11.3071 23.5549 11.2138 24.0883H10.3364V24.0549Z" fill="#1414D2"/>
<path d="M18.3124 11.9216V8.08826H19.5631V11.7883C19.5631 13.2216 19.9364 13.8216 20.6644 13.8216C21.3924 13.8216 21.7658 13.2216 21.7658 11.7883V8.08826H23.0164V11.9216C23.0164 14.5883 22.2698 15.7549 20.6644 15.7549C19.0591 15.7549 18.3124 14.5883 18.3124 11.9216ZM28.6164 12.4549L26.3018 8.08826H25.0698V15.5883H26.2271V10.8216L28.7471 15.5549H29.7551V8.08826H28.5978V12.4549H28.6164ZM31.9391 15.5883H33.1898V8.08826H31.9391V15.5883ZM47.3391 8.08826H49.7284C51.3898 8.08826 52.1551 9.38826 52.1551 11.8216C52.1551 14.2549 51.3898 15.5549 49.7284 15.5549H47.3391V8.08826ZM48.5898 13.5549H49.6911C50.4938 13.5549 50.8671 13.0216 50.8671 11.8216C50.8671 10.6216 50.4938 10.0883 49.6911 10.0883H48.5898V13.5549ZM42.5791 12.6216H45.1551V11.0216H42.5791V9.92159H45.3604V8.08826H41.3284V15.5883H45.3791V13.7549H42.5791V12.6216ZM35.0191 10.0883H36.6244V15.5549H37.8751V10.0883H39.4804V8.08826H35.0004L35.0191 10.0883Z" fill="#1414D2"/>
</svg>
